<?xml version="1.0" standalone="no"?>
<!DOCTYPE svg PUBLIC "-//W3C//DTD SVG 20010904//EN"
 "http://www.w3.org/TR/2001/REC-SVG-20010904/DTD/svg10.dtd">
<svg version="1.0" xmlns="http://www.w3.org/2000/svg"
 width="1024.000000pt" height="819.000000pt" viewBox="0 0 1024.000000 819.000000"
 preserveAspectRatio="xMidYMid meet">

<g transform="translate(0.000000,819.000000) scale(0.100000,-0.100000)"
fill="#000000" stroke="none">
<path d="M1012 7728 c-18 -23 -30 -89 -48 -260 -17 -158 -17 -175 -1 -295 30
-229 70 -342 185 -522 39 -61 47 -79 29 -65 -113 86 -357 269 -434 325 -78 57
-98 67 -114 59 -10 -6 -22 -22 -25 -36 -9 -34 4 -229 21 -331 54 -315 125
-458 313 -629 59 -54 116 -106 127 -116 23 -22 -22 -2 -250 107 -209 100 -331
155 -343 155 -6 0 -18 -10 -26 -23 -14 -20 -14 -30 0 -87 42 -182 136 -399
230 -532 69 -99 156 -165 329 -252 72 -36 124 -65 117 -65 -7 -1 -61 10 -120
24 -246 56 -541 113 -561 108 -34 -9 -35 -39 -3 -106 79 -162 239 -367 343
-436 62 -42 174 -82 287 -103 34 -6 62 -14 62 -18 0 -4 -135 -10 -301 -13
-311 -6 -329 -8 -329 -48 0 -60 185 -261 337 -366 137 -95 252 -125 449 -116
l119 5 -130 -60 c-279 -127 -460 -215 -488 -236 -29 -22 -12 -61 42 -95 77
-50 213 -108 317 -137 80 -21 113 -25 176 -22 43 3 78 4 78 2 0 -1 -71 -58
-157 -127 -261 -207 -262 -209 -81 -261 113 -33 236 -50 316 -43 80 6 105 -4
92 -36 -11 -25 -76 -239 -85 -279 -10 -40 2 -65 37 -77 22 -8 28 -14 21 -23
-6 -7 -14 -31 -17 -53 -4 -22 -12 -61 -17 -87 l-10 -46 -57 1 c-74 2 -123 -26
-146 -84 -10 -24 -21 -98 -27 -176 -8 -108 -17 -155 -44 -237 -83 -252 -71
-393 55 -651 103 -210 258 -367 400 -405 24 -7 69 -32 100 -56 90 -71 137 -86
610 -193 96 -22 240 -56 320 -76 80 -19 166 -37 191 -40 43 -5 47 -9 64 -48
29 -71 49 -110 71 -137 12 -14 28 -39 37 -56 9 -17 49 -65 89 -107 84 -87 122
-104 195 -85 51 12 107 70 117 121 8 37 7 38 69 -62 54 -89 109 -119 193 -106
34 5 57 17 89 46 57 52 71 103 50 184 -9 32 -18 61 -20 66 -3 4 27 18 66 30
94 30 129 54 157 111 l24 48 -26 90 c-14 50 -26 93 -26 96 0 3 17 -8 38 -25
64 -50 316 -217 363 -241 39 -19 69 -23 279 -31 232 -10 848 -5 965 7 33 4 78
16 100 27 59 29 195 119 307 202 54 41 98 73 98 72 0 -1 -12 -36 -26 -77 -55
-161 -24 -217 154 -280 34 -13 62 -24 62 -25 0 -1 -7 -22 -15 -45 -34 -96 -11
-176 63 -227 91 -61 187 -32 262 79 59 88 70 99 70 70 0 -33 25 -76 60 -106
40 -33 112 -36 169 -6 73 37 225 239 279 370 17 40 23 46 53 48 64 4 114 14
309 62 164 40 390 94 600 141 79 18 183 68 240 114 30 25 64 45 76 45 35 0
136 56 195 109 99 88 225 297 279 461 36 107 48 239 30 325 -7 33 -28 110 -47
170 -29 91 -36 133 -43 247 -6 115 -11 143 -30 173 -28 46 -51 57 -129 64
l-65 6 -17 67 c-32 130 -33 135 -4 142 31 8 42 46 26 95 -40 124 -80 273 -76
283 4 10 39 13 133 13 107 0 143 4 231 28 182 48 198 64 131 133 -25 25 -72
67 -106 92 -174 134 -224 173 -224 177 0 2 38 1 84 -2 74 -5 95 -2 192 26 102
30 294 121 337 159 11 9 17 26 15 41 -3 22 -22 35 -143 95 -77 38 -216 104
-309 147 l-168 78 153 -2 c197 -2 243 10 384 102 85 56 205 165 287 263 83
100 95 139 45 152 -12 2 -128 8 -257 11 -129 3 -260 8 -290 12 l-55 6 98 23
c232 55 368 161 517 399 94 150 117 223 75 238 -14 6 -276 -44 -548 -104 -75
-17 -143 -28 -150 -26 -7 3 -5 6 6 6 34 2 253 121 323 175 38 31 93 86 121
124 130 171 280 581 233 637 -22 26 -7 32 -453 -184 -104 -50 -190 -91 -193
-91 -2 0 44 42 103 93 59 50 133 123 164 160 135 161 211 404 225 721 6 134 6
142 -14 159 -23 21 -29 19 -132 -58 -151 -114 -416 -312 -433 -324 -11 -8 4
21 33 64 177 262 233 561 176 935 -23 148 -41 179 -89 147 -29 -19 -377 -356
-590 -571 l-168 -170 7 -134 c7 -142 -2 -169 -25 -70 -14 66 -45 118 -69 118
-9 0 -116 -97 -237 -214 -121 -118 -220 -214 -221 -213 -1 1 -20 42 -43 91
-47 101 -77 144 -124 179 -42 32 -79 40 -102 24 -21 -16 -26 -46 -60 -363 -14
-135 -31 -258 -36 -272 -6 -15 -30 -47 -53 -72 -54 -57 -142 -187 -180 -268
-17 -34 -34 -61 -39 -59 -5 1 -34 48 -64 102 -57 103 -88 145 -108 145 -7 0
-39 -18 -72 -39 l-61 -39 -49 -129 c-28 -70 -58 -149 -67 -175 -22 -59 -29
-64 -64 -40 -15 10 -124 67 -242 127 l-214 108 -62 -12 c-71 -15 -82 -11 -134
45 -65 69 -70 81 -70 179 -1 50 -7 107 -14 128 -43 118 -168 199 -409 261
-428 111 -1032 50 -1276 -129 -89 -66 -102 -93 -112 -242 -10 -138 -9 -137
-100 -221 l-46 -42 -43 15 c-23 8 -51 15 -62 15 -18 0 -407 -189 -434 -211 -6
-5 -27 -15 -46 -24 l-36 -14 -37 97 c-88 233 -97 253 -129 276 -59 45 -108 66
-127 55 -10 -5 -44 -55 -75 -112 -31 -56 -63 -110 -69 -120 -11 -15 -19 -5
-63 82 -52 102 -87 153 -173 252 l-48 55 -15 135 c-37 324 -56 478 -62 493
-11 28 -49 30 -94 5 -55 -31 -121 -121 -156 -211 -15 -40 -29 -75 -31 -77 -1
-2 -102 94 -225 213 -148 144 -230 216 -244 216 -17 0 -26 -12 -42 -57 -12
-32 -24 -73 -27 -91 -4 -18 -11 -29 -17 -26 -7 4 -8 48 -3 128 l7 121 -30 40
c-31 43 -642 643 -706 694 -42 34 -58 38 -74 19z m8184 -210 c16 -120 18 -285
4 -378 -13 -91 -55 -231 -93 -309 -55 -116 -195 -316 -227 -326 -11 -4 -33 1
-49 11 -36 21 -35 22 -190 -124 -64 -60 -128 -117 -143 -126 -28 -18 -28 -18
-28 7 0 20 21 45 93 108 50 44 99 89 108 98 8 9 56 55 105 103 72 69 95 86
112 81 13 -3 33 2 47 11 20 13 25 25 25 55 0 33 -4 40 -30 51 -40 17 -80 -7
-80 -48 0 -23 -33 -59 -185 -206 -102 -98 -188 -177 -190 -175 -2 2 -6 16 -10
30 -6 23 9 40 154 175 138 128 161 153 161 179 1 77 14 97 139 220 67 66 126
121 131 123 4 2 4 -14 0 -34 -6 -25 -27 -55 -64 -93 -53 -54 -69 -81 -46 -81
6 0 41 29 77 64 65 62 67 65 75 127 30 249 48 419 48 474 0 46 24 104 37 91 3
-3 11 -51 19 -108z m-8089 24 c-6 -30 5 -165 30 -377 l17 -150 70 -72 c38 -40
73 -73 78 -73 20 0 3 28 -52 86 -48 50 -60 69 -60 95 0 32 2 31 118 -82 64
-63 122 -121 128 -129 6 -8 13 -40 16 -70 4 -52 7 -58 63 -110 32 -30 72 -68
89 -85 17 -16 65 -60 105 -98 70 -64 73 -69 65 -98 l-9 -31 -185 174 c-148
139 -186 180 -188 203 -5 42 -19 55 -58 55 -47 0 -72 -36 -52 -77 10 -22 22
-29 54 -33 36 -5 62 -26 237 -190 169 -159 197 -189 197 -215 l0 -29 -37 35
c-21 19 -69 63 -108 99 -38 35 -94 86 -122 113 l-53 49 -40 -16 c-22 -9 -44
-16 -49 -16 -4 0 -33 33 -63 73 -187 244 -268 469 -268 740 0 78 14 233 26
287 l6 25 25 -29 c17 -20 23 -37 20 -54z m7989 -99 l-7 -108 -230 -225 -230
-225 1 -76 c0 -87 16 -64 -158 -232 l-112 -109 0 37 c0 31 10 46 70 110 39 41
70 80 71 87 1 7 0 69 -1 138 l-2 125 299 292 c164 161 300 293 302 293 2 0 1
-48 -3 -107z m-7648 -191 l292 -287 0 -132 c0 -147 -6 -132 97 -245 31 -34 43
-56 43 -78 l0 -31 -27 21 c-16 12 -74 67 -130 122 l-103 100 0 78 0 78 -235
230 -235 230 0 79 c0 43 -3 88 -6 101 -4 12 -2 22 2 22 5 0 141 -130 302 -288z
m133 -467 l0 -80 149 -140 c87 -82 149 -148 149 -159 1 -18 0 -18 -17 -3 -10
10 -22 17 -26 17 -11 0 -59 42 -213 187 l-133 125 0 54 0 55 -155 151 c-85 82
-156 157 -159 166 -2 10 -7 40 -11 68 l-6 50 210 -205 211 -206 1 -80z m7493
438 c-3 -27 -12 -59 -19 -73 -11 -21 -130 -142 -277 -282 -24 -23 -28 -34 -28
-81 l0 -55 -159 -151 c-87 -83 -162 -151 -166 -151 -4 0 -20 -10 -37 -21 -29
-21 -30 -21 -26 -2 1 11 68 81 148 157 80 75 148 145 152 154 4 9 7 49 7 87
l1 70 202 197 c112 109 204 198 206 198 2 0 0 -21 -4 -47z m-8331 -412 c15
-14 27 -29 27 -35 0 -14 87 -325 117 -418 19 -62 32 -84 61 -108 43 -35 52
-37 52 -11 0 11 -14 30 -31 43 -25 20 -35 43 -64 143 -19 65 -33 120 -32 122
2 1 55 -39 119 -90 64 -51 188 -147 275 -214 87 -67 175 -136 196 -155 l38
-33 11 -134 11 -134 64 -46 c55 -40 63 -50 63 -79 l0 -33 -37 29 c-21 16 -64
48 -96 71 -32 23 -57 47 -55 54 3 16 -12 177 -18 198 -2 9 -65 65 -139 125
-103 82 -135 113 -135 131 0 23 -31 63 -50 63 -42 0 -80 -48 -67 -84 11 -27
57 -51 76 -39 14 9 34 -3 112 -66 190 -152 168 -122 179 -247 12 -124 -2 -104
149 -217 62 -46 91 -74 91 -88 0 -19 -3 -19 -52 9 -29 17 -77 43 -107 58 -29
16 -71 45 -92 64 -37 34 -39 37 -49 135 -7 55 -15 103 -18 106 -4 4 -35 30
-70 58 -34 29 -60 57 -56 62 8 14 -22 56 -46 64 -32 10 -70 -20 -70 -54 0 -36
29 -62 67 -59 21 1 42 -7 69 -29 74 -59 82 -72 90 -152 6 -70 6 -73 -12 -63
-44 25 -313 258 -384 334 -110 118 -154 204 -205 405 -16 66 -45 274 -45 332
0 37 3 36 63 -18z m8797 -191 c-31 -191 -81 -335 -158 -448 -58 -86 -128 -149
-419 -381 l-56 -45 6 49 c4 26 7 60 7 76 0 41 107 129 159 129 47 0 61 14 61
60 0 30 -5 39 -25 48 -14 7 -31 12 -37 12 -21 0 -48 -33 -48 -59 -1 -20 -17
-39 -70 -81 -61 -49 -70 -60 -74 -95 -3 -22 -8 -71 -13 -110 l-8 -70 -50 -33
c-27 -18 -72 -44 -100 -58 -27 -15 -69 -38 -92 -51 -32 -18 -43 -21 -43 -11 0
23 20 42 123 117 54 40 102 83 107 96 5 13 12 66 16 116 6 76 11 95 28 110
172 146 232 190 258 185 37 -7 80 28 76 62 -2 14 -15 34 -30 45 l-28 21 -27
-21 c-16 -11 -29 -30 -31 -42 -4 -27 -31 -52 -168 -162 -112 -89 -106 -76
-120 -226 -3 -40 -12 -79 -18 -86 -6 -8 -48 -42 -93 -76 l-83 -62 0 33 c1 28
9 39 60 77 66 50 62 38 81 214 l12 108 53 42 c28 23 80 65 115 92 34 28 97 76
138 108 42 32 99 76 126 98 155 120 190 147 193 144 2 -2 -6 -36 -18 -77 -12
-40 -27 -92 -33 -116 -7 -28 -23 -54 -45 -73 -20 -18 -32 -36 -28 -44 8 -21
17 -19 54 16 39 36 44 48 83 194 36 133 88 311 101 345 5 14 24 34 41 45 l32
21 3 -51 c2 -27 -6 -110 -18 -185z m-7323 -117 c77 -78 121 -128 118 -138 -3
-8 -8 -23 -11 -32 -4 -14 -46 24 -181 162 -102 105 -178 175 -181 167 -5 -15
36 -78 73 -112 22 -21 25 -32 25 -92 l0 -68 102 -107 c56 -60 105 -109 110
-111 10 -5 10 -83 0 -100 -6 -8 -52 32 -153 133 -159 161 -150 143 -165 308
-5 57 -11 74 -37 104 l-31 35 13 61 c7 34 15 66 18 70 5 9 103 -82 300 -280z
m6127 213 l15 -59 -35 -43 c-33 -40 -36 -48 -43 -142 -5 -62 -14 -109 -23
-124 -9 -13 -76 -83 -149 -157 -123 -122 -134 -131 -140 -110 -18 64 -12 75
90 181 54 57 103 113 110 125 6 12 11 47 11 78 0 53 3 59 55 122 55 67 66 87
43 81 -7 -2 -91 -82 -185 -179 -95 -97 -173 -176 -173 -175 0 0 -4 17 -10 35
l-10 35 207 203 c113 112 210 200 214 196 4 -4 14 -35 23 -67z m-7369 -77
c156 -115 371 -283 515 -402 322 -265 297 -240 304 -298 4 -28 5 -53 3 -56 -5
-5 -42 23 -213 159 -224 178 -382 302 -474 371 -52 39 -131 100 -175 136 -44
35 -81 65 -83 67 -2 1 -9 24 -16 50 -7 27 -17 60 -21 74 -6 20 -5 23 6 14 8
-6 77 -58 154 -115z m8451 104 c-3 -10 -12 -44 -21 -75 -17 -62 -6 -51 -296
-273 -93 -71 -285 -221 -350 -273 -163 -131 -265 -210 -291 -226 l-31 -20 6
33 c4 19 7 44 7 56 0 23 36 56 244 225 45 36 128 104 186 151 130 105 539 419
548 419 2 0 1 -8 -2 -17z m-8079 -9 c9 -23 -11 -38 -26 -20 -13 16 -7 36 10
36 5 0 12 -7 16 -16z m7580 0 c3 -8 1 -20 -6 -27 -14 -14 -47 15 -37 32 10 16
36 13 43 -5z m-6327 -353 c12 -113 25 -235 30 -271 6 -36 14 -110 19 -165 5
-55 19 -172 31 -260 11 -88 32 -257 46 -375 14 -118 27 -224 29 -235 2 -11 7
-47 10 -80 10 -105 21 -200 56 -475 11 -91 23 -191 26 -222 l6 -57 -38 -16
c-43 -18 -55 -10 -55 37 0 14 -9 81 -20 147 -11 67 -25 151 -30 189 -5 37 -16
110 -25 162 -8 52 -33 219 -55 370 -38 262 -67 438 -89 543 -18 82 -80 258
-123 346 l-40 85 33 135 c18 75 38 149 45 166 l12 30 5 -35 c3 -19 11 -82 17
-140 22 -206 67 -367 56 -200 -17 255 -27 486 -21 509 3 14 14 37 22 51 l17
25 7 -29 c4 -15 17 -121 29 -235z m5110 167 c6 -47 2 -195 -14 -488 -5 -88 -4
-93 9 -64 19 43 42 195 51 337 4 65 10 115 15 110 17 -18 89 -289 89 -337 0
-13 -18 -59 -41 -101 -22 -43 -54 -118 -70 -167 -30 -94 -87 -367 -114 -553
-59 -411 -109 -742 -130 -875 -14 -85 -25 -165 -25 -177 0 -28 -15 -29 -58 -3
-31 19 -32 22 -27 68 3 26 23 193 45 372 76 622 100 826 111 920 6 52 17 151
26 220 20 161 20 162 28 245 4 39 20 178 36 310 16 132 29 247 29 255 0 12 3
11 17 -2 9 -10 20 -41 23 -70z m-6102 -211 c138 -128 161 -153 164 -183 2 -19
3 -34 1 -34 -2 0 -58 46 -125 103 -132 110 -248 221 -248 237 0 10 31 31 41
27 4 -1 79 -69 167 -150z m6533 94 c-7 -32 -28 -62 -97 -135 -49 -51 -92 -91
-96 -89 -5 2 -8 20 -8 39 0 31 12 48 102 140 56 58 104 101 106 96 1 -5 -1
-28 -7 -51z m688 41 c22 -17 22 -17 -76 -108 -54 -50 -138 -126 -188 -169
l-90 -78 -3 33 c-3 31 3 41 75 110 112 107 247 229 254 229 4 1 17 -7 28 -17z
m-6525 -229 c-4 -15 -9 -30 -11 -33 -3 -3 -47 39 -99 92 -89 92 -94 99 -94
140 l0 43 106 -107 c95 -97 104 -110 98 -135z m3126 113 c218 -35 402 -107
474 -186 42 -47 46 -79 15 -130 l-22 -35 -11 45 c-14 55 -33 83 -77 116 -83
62 -193 102 -373 134 -153 28 -305 35 -475 21 -263 -22 -473 -92 -560 -186
-34 -37 -41 -51 -41 -86 0 -37 -2 -40 -17 -28 -23 20 -44 75 -36 96 31 84 176
168 359 208 200 45 293 55 484 50 102 -2 228 -11 280 -19z m-3540 -158 c0 -76
-7 -91 -28 -65 -14 16 -26 120 -18 153 7 25 8 26 26 9 17 -15 20 -31 20 -97z
m6510 39 c0 -50 -5 -80 -16 -95 -24 -35 -34 -17 -34 60 0 52 4 76 17 90 27 30
33 21 33 -55z m-7272 -5 c2 -12 -1 -22 -6 -22 -15 0 -34 28 -27 40 10 17 30 6
33 -18z m8019 12 c3 -8 0 -21 -6 -27 -10 -9 -16 -8 -27 7 -11 16 -11 22 -1 28
18 12 27 10 34 -8z m-6906 -302 c10 -4 12 -64 3 -111 l-7 -32 -81 78 c-44 43
-116 109 -158 147 l-78 68 0 80 0 80 156 -153 c85 -85 159 -155 165 -157z
m6079 230 l0 -79 -151 -139 c-83 -76 -155 -140 -159 -142 -5 -2 -10 23 -12 55
l-3 58 160 162 c88 89 161 162 163 162 1 1 2 -34 2 -77z m-3112 44 c14 -31 60
-41 153 -32 62 5 75 3 121 -20 l52 -26 -23 -17 c-35 -27 -12 -58 51 -66 47 -7
48 -8 48 -41 0 -35 -6 -39 -70 -46 -19 -2 -26 -10 -30 -33 -4 -23 -11 -30 -32
-32 -15 -1 -36 -7 -47 -12 -11 -6 -55 -20 -98 -30 -74 -17 -78 -20 -76 -45 2
-34 -13 -38 -157 -34 l-115 3 0 30 c0 26 -4 30 -40 36 -22 4 -67 17 -100 29
-33 11 -71 22 -85 23 -20 2 -26 8 -28 34 -3 29 -6 32 -53 38 -45 6 -49 9 -49
33 0 38 10 47 54 50 60 4 85 34 51 62 -21 17 -5 35 51 56 38 14 51 15 85 5 57
-17 147 3 162 36 9 21 16 23 87 23 72 0 78 -2 88 -24z m-573 -50 c18 -13 18
-14 -3 -25 -13 -7 -46 -11 -75 -9 l-52 3 45 22 c53 27 60 27 85 9z m1065 -11
l45 -24 -58 -1 c-32 0 -67 5 -78 11 -20 10 -20 11 -2 24 25 20 41 18 93 -10z
m-3819 -71 c7 -9 18 -68 25 -131 9 -78 18 -121 28 -132 9 -8 16 -10 16 -4 0 6
17 -5 38 -24 20 -19 83 -75 139 -125 62 -55 103 -99 106 -114 2 -13 2 -24 0
-24 -10 0 -72 48 -148 115 -44 39 -102 88 -130 110 -27 21 -53 41 -57 45 -4 3
-14 57 -22 120 -9 63 -18 130 -22 148 -7 35 5 42 27 16z m6509 7 c0 -25 -33
-256 -38 -272 -4 -10 -81 -81 -172 -157 -155 -132 -165 -139 -168 -114 -4 29
1 35 183 194 92 80 100 86 106 65 5 -19 7 -17 12 13 20 109 27 157 27 182 0
35 25 98 39 98 6 0 11 -4 11 -9z m-7213 -27 c3 -8 1 -20 -6 -27 -14 -14 -47
15 -37 32 10 16 36 13 43 -5z m3399 4 c16 -17 -14 -28 -77 -28 -51 0 -69 4
-69 13 0 8 3 17 8 21 8 9 128 3 138 -6z m1232 0 c23 -23 11 -28 -68 -28 -63 0
-80 3 -80 14 0 11 14 16 48 19 26 2 56 4 68 5 11 1 25 -3 32 -10z m3290 0 c17
-17 15 -28 -7 -28 -22 0 -35 15 -26 30 8 13 18 13 33 -2z m-6983 -204 l119
-109 3 -49 c4 -87 -6 -88 -89 -10 -40 39 -97 90 -126 114 -60 49 -70 68 -81
158 l-7 63 30 -29 c17 -16 85 -78 151 -138z m6191 105 c-4 -33 -11 -71 -16
-83 -7 -20 -260 -256 -274 -256 -3 0 -6 30 -5 68 l1 67 146 132 c81 73 149
133 151 133 2 0 0 -27 -3 -61z m-6685 -2 c35 -29 92 -74 127 -100 34 -27 62
-52 62 -57 0 -4 -32 -11 -71 -15 -58 -6 -72 -11 -76 -26 -7 -26 -23 -24 -64
11 -32 25 -37 36 -42 87 -4 32 -9 79 -13 106 -4 27 -3 47 3 47 5 0 38 -24 74
-53z m7070 -58 c-6 -57 -12 -103 -14 -104 -1 -1 -19 -15 -41 -30 -36 -27 -39
-28 -51 -12 -15 21 -66 37 -117 37 -43 0 -48 11 -15 33 12 8 71 53 131 101 60
47 111 84 113 82 3 -3 0 -51 -6 -107z m-8034 2 c40 -92 163 -331 191 -374 23
-35 51 -52 242 -146 l215 -106 27 -65 c15 -36 23 -66 19 -68 -15 -5 -420 197
-474 236 -92 69 -152 146 -221 287 -57 114 -126 293 -126 323 0 6 21 2 51 -10
46 -20 54 -28 76 -77z m9012 -47 c-70 -200 -151 -337 -257 -435 -57 -53 -99
-77 -291 -171 -122 -60 -225 -107 -228 -104 -3 3 5 33 18 68 l24 63 214 106
c146 72 221 114 237 135 26 31 180 337 199 394 10 28 23 41 66 62 38 19 55 23
57 14 1 -7 -16 -66 -39 -132z m-1769 -89 c13 -180 8 -340 -20 -590 -28 -243
-63 -423 -155 -799 -64 -259 -85 -327 -95 -300 -5 11 -4 43 1 70 38 200 99
560 99 584 0 19 5 30 14 30 22 0 56 49 56 81 0 31 -40 69 -73 69 -30 0 -67
-39 -67 -70 0 -15 9 -39 20 -53 l20 -25 -25 -149 c-15 -81 -39 -226 -55 -322
-16 -96 -31 -175 -33 -177 -6 -6 -67 48 -62 56 3 4 21 116 39 247 19 131 40
274 46 318 7 44 23 145 35 225 22 132 33 205 80 520 20 134 66 306 112 423 37
91 37 92 45 57 4 -19 12 -107 18 -195z m-5505 162 c62 -135 109 -346 170 -757
19 -129 42 -280 50 -335 9 -55 20 -132 25 -170 5 -39 13 -91 19 -115 5 -25 17
-101 26 -170 9 -69 20 -145 24 -170 7 -45 6 -45 -48 -97 -30 -29 -55 -52 -57
-50 -5 6 -81 292 -116 437 -37 151 -66 297 -103 520 -40 234 -61 570 -46 753
11 136 21 207 28 207 2 0 15 -24 28 -53z m3369 47 c27 -4 46 -12 46 -19 0 -19
-22 -24 -81 -17 -40 5 -55 11 -57 25 -4 19 14 21 92 11z m-2957 -76 c47 -71
123 -218 138 -268 6 -19 -80 81 -175 205 -9 12 -24 135 -17 135 3 0 27 -33 54
-72z m1768 63 c6 -11 -10 -16 -73 -26 -41 -7 -72 5 -72 26 0 12 137 12 145 0z
m2911 -59 c-6 -32 -18 -68 -26 -79 -92 -124 -163 -214 -166 -210 -4 4 17 59
54 137 39 84 130 221 143 214 3 -2 1 -30 -5 -62z m-3136 -120 l0 -134 -117
-122 c-65 -66 -121 -122 -125 -124 -4 -2 -12 7 -18 18 -11 20 -2 32 99 135
l111 112 0 148 0 148 25 -23 c24 -23 25 -27 25 -158z m1599 0 l1 -114 105
-111 c58 -62 105 -116 105 -122 0 -5 -5 -17 -10 -25 -8 -12 -33 10 -130 110
l-120 125 0 134 c0 114 3 137 18 154 17 19 17 19 23 -9 4 -16 7 -80 8 -142z
m-5178 108 c84 -35 803 -400 864 -439 22 -14 41 -26 43 -27 2 -1 5 -18 9 -37
l5 -36 -153 79 c-85 43 -300 153 -479 243 -308 156 -326 167 -348 206 -13 22
-22 41 -19 41 2 0 37 -14 78 -30z m8756 -11 c-24 -44 0 -32 -782 -426 -93 -47
-178 -93 -188 -102 -17 -15 -18 -14 -12 14 13 53 30 69 136 127 222 120 838
426 861 428 4 0 -3 -18 -15 -41z m-4927 17 c0 -2 3 -12 7 -21 5 -15 1 -16 -28
-10 -49 11 -57 18 -29 26 31 9 50 10 50 5z m1093 -6 c20 -1 19 -2 -6 -16 -33
-18 -59 -12 -51 11 4 9 13 14 21 11 8 -3 24 -6 36 -6z m-1253 -40 c18 -10 19
-20 14 -153 l-4 -142 -63 -63 c-34 -34 -90 -92 -124 -129 -44 -47 -66 -64 -78
-59 -9 3 -15 12 -13 20 2 8 56 71 121 140 l117 124 0 136 c0 75 3 136 6 136 3
0 14 -5 24 -10z m1390 -127 l0 -136 126 -128 c88 -89 125 -132 121 -143 -4 -9
-13 -16 -20 -16 -13 0 -126 111 -225 221 l-42 46 0 141 c0 137 2 148 33 151 4
1 7 -60 7 -136z m-992 99 c28 -9 52 -20 52 -24 0 -24 -134 12 -139 37 -2 14 1
16 15 11 11 -4 43 -15 72 -24z m652 10 c0 -14 -13 -21 -51 -30 -105 -25 -123
-7 -26 25 78 27 77 27 77 5z m-2230 -167 c22 -88 60 -232 85 -320 25 -88 48
-173 51 -190 4 -16 21 -77 40 -135 30 -96 114 -378 150 -509 8 -29 13 -55 10
-58 -9 -10 -76 148 -140 332 -99 288 -171 535 -240 819 -42 177 -44 190 -29
213 9 13 20 20 24 16 5 -5 27 -81 49 -168z m3801 141 c13 -27 6 -62 -58 -301
-20 -71 -39 -146 -43 -165 -30 -128 -136 -464 -221 -696 -76 -209 -133 -282
-70 -92 16 51 44 143 61 203 30 107 72 253 146 500 28 94 107 409 139 553 7
29 33 28 46 -2z m-2473 -179 l2 -166 -75 -83 c-133 -148 -191 -202 -209 -195
-9 4 -16 12 -16 20 0 7 54 70 120 139 l120 126 6 170 c7 167 7 170 28 162 20
-7 21 -15 24 -173z m1122 5 l0 -167 130 -130 c131 -130 131 -130 109 -148 -21
-17 -23 -16 -138 101 -64 65 -124 124 -133 131 -16 12 -26 5 -88 -60 l-69 -74
-1 -157 c0 -86 -3 -163 -6 -172 -3 -9 -15 -16 -25 -16 -17 0 -18 11 -19 188
l0 187 92 87 93 86 -3 148 c-3 153 0 163 41 164 15 0 17 -15 17 -168z m-4620
-16 c418 -210 616 -314 630 -331 10 -12 7 -17 -12 -26 -22 -9 -56 5 -307 132
-198 100 -288 151 -299 168 -22 34 -32 41 -64 41 -51 0 -67 -77 -23 -106 21
-14 30 -14 55 -4 28 12 39 8 179 -63 192 -96 401 -207 401 -213 0 -2 -11 -11
-24 -20 -24 -15 -29 -14 -118 29 -51 25 -131 63 -178 85 -146 68 -412 202
-427 214 -18 15 -71 106 -110 190 -25 52 -28 65 -15 60 9 -4 150 -74 312 -156z
m1834 -45 c1 -7 -12 -18 -28 -24 -25 -8 -31 -6 -47 14 -55 71 -67 96 -74 158
l-6 64 77 -99 c42 -54 77 -105 78 -113z m1210 68 c-49 -49 -92 -89 -96 -89 -5
0 -8 12 -8 26 0 20 22 47 93 114 86 82 92 86 95 62 3 -20 -13 -42 -84 -113z
m1994 47 c51 -51 92 -97 92 -102 0 -5 -5 -16 -10 -24 -15 -24 -183 148 -186
189 -1 17 1 31 5 31 4 0 49 -42 99 -94z m1336 19 c-6 -56 -12 -73 -40 -107
-19 -22 -34 -44 -34 -49 0 -14 -33 -10 -55 7 -18 13 -18 17 -5 39 22 36 135
183 138 180 2 -1 0 -33 -4 -70z m2001 38 c-33 -79 -107 -203 -132 -223 -15
-11 -61 -37 -102 -56 -41 -20 -183 -89 -316 -154 -132 -64 -250 -120 -261
-124 -14 -4 -27 0 -39 14 -10 11 -16 22 -14 24 22 19 498 253 504 248 5 -4 4
-1 0 7 -6 11 -4 13 9 8 10 -4 15 -3 11 3 -8 12 1 13 44 0 57 -16 101 27 78 78
-21 45 -100 38 -112 -10 -9 -33 -568 -318 -593 -302 -25 16 -25 38 0 50 98 46
905 458 913 465 20 19 25 7 10 -28z m-4787 -75 l3 -97 44 -39 44 -39 1 -278
c1 -152 -1 -279 -4 -282 -2 -2 -14 0 -25 7 -20 10 -21 17 -21 273 l0 263 -40
39 -40 39 0 109 c0 98 2 108 18 105 14 -3 17 -17 20 -100z m880 -178 c-44 -41
-62 -48 -74 -28 -4 6 10 27 34 50 l42 39 0 104 c0 91 2 104 18 107 15 3 17 -8
20 -114 l3 -117 -43 -41z m-738 239 l50 -11 0 -74 c0 -41 -3 -74 -7 -74 -5 0
-30 6 -58 13 l-50 13 -3 72 c-2 43 1 72 7 72 6 0 33 -5 61 -11z m680 -59 c0
-78 -2 -80 -84 -95 l-36 -7 0 76 c0 70 2 76 23 80 104 23 97 26 97 -54z
m-3623 28 c17 -13 98 -77 178 -143 81 -66 156 -126 166 -134 11 -8 19 -26 19
-42 0 -29 0 -29 -102 46 -57 42 -150 108 -207 148 -137 95 -184 134 -168 140
31 13 84 6 114 -15z m6597 -5 c-55 -43 -461 -333 -467 -333 -4 0 -7 10 -7 23
0 18 43 58 196 180 l196 157 56 -1 55 -2 -29 -24z m-5334 12 c0 -13 85 -332
117 -440 44 -147 201 -623 215 -650 17 -33 -36 20 -69 69 -15 22 -53 77 -84
121 -128 180 -230 383 -289 576 l-32 105 63 112 c54 96 79 129 79 107z m2185
-70 c-3 -38 -8 -72 -11 -75 -10 -9 -246 -12 -319 -3 l-70 8 -3 70 -3 70 206 0
207 0 -7 -70z m1850 -21 c33 -53 63 -105 67 -115 15 -38 -70 -267 -164 -444
-69 -129 -247 -395 -265 -395 -7 0 -13 -8 -13 -19 0 -10 -7 -24 -15 -31 -21
-18 -19 -5 13 75 57 141 220 672 273 888 19 75 36 137 39 137 3 0 32 -43 65
-96z m1335 32 c0 -13 -3 -44 -6 -70 -7 -46 -9 -48 -78 -87 -39 -22 -140 -87
-225 -145 -85 -57 -160 -104 -166 -104 -7 0 -19 8 -27 18 -22 24 -9 52 43 87
67 46 257 183 322 233 32 24 64 45 72 46 8 1 18 6 22 11 4 4 1 5 -7 1 -8 -4
-4 2 10 13 32 27 40 26 40 -3z m-6618 -88 c79 -55 188 -133 243 -172 55 -39
103 -75 107 -81 15 -20 8 -46 -16 -56 -21 -10 -43 1 -217 117 -107 70 -211
138 -231 152 -24 16 -38 33 -38 46 0 11 -3 38 -6 59 -4 23 -3 37 4 37 6 0 75
-46 154 -102z m2066 -111 c93 -205 311 -401 607 -545 92 -45 299 -113 421
-137 107 -22 130 -24 203 -15 233 30 529 148 731 294 171 122 292 250 353 371
29 59 67 177 67 211 0 28 1 28 35 12 28 -13 31 -30 14 -110 -27 -129 -110
-261 -248 -398 -243 -240 -612 -418 -956 -462 -81 -10 -101 -9 -200 11 -326
65 -645 224 -851 423 -171 166 -250 293 -274 443 -11 67 -10 71 11 88 l22 18
18 -69 c9 -38 31 -98 47 -135z m-1145 109 c13 -19 14 -25 3 -29 -7 -3 -13 0
-13 6 0 7 -4 20 -8 30 -10 25 0 21 18 -7z m976 -38 c6 -35 34 -108 61 -163 81
-167 243 -332 460 -471 l95 -61 5 -156 c3 -86 10 -160 15 -165 6 -5 58 -43
118 -85 173 -121 167 -115 167 -191 0 -36 -2 -66 -5 -66 -11 0 -194 127 -340
235 -203 151 -280 217 -401 343 -221 232 -351 420 -425 616 -32 86 -33 89 -14
102 18 13 22 8 65 -78 97 -197 204 -336 394 -511 80 -74 96 -93 96 -118 0 -70
70 -131 128 -111 55 18 88 103 61 154 -16 29 -72 49 -118 42 l-40 -6 -149 148
c-81 82 -173 185 -204 229 -54 77 -148 255 -148 280 0 15 45 39 58 31 5 -3 12
-19 15 -35 4 -17 23 -65 43 -108 34 -70 38 -76 47 -55 7 16 6 32 -6 59 -9 21
-25 67 -36 103 l-20 65 21 18 c33 28 43 20 57 -45z m2723 44 l27 -18 -35 -104
c-19 -57 -33 -111 -32 -119 4 -19 68 69 68 93 0 8 4 17 9 20 5 3 14 26 20 51
10 39 14 44 30 36 44 -24 44 -33 -14 -147 -77 -152 -148 -246 -311 -408 l-142
-141 -53 3 c-96 6 -141 -56 -100 -136 31 -61 95 -75 150 -33 17 13 25 31 29
66 5 47 10 53 152 194 174 173 251 274 328 433 31 64 60 117 63 118 3 0 13 -6
23 -13 16 -12 16 -15 1 -62 -23 -68 -97 -215 -149 -294 -129 -199 -395 -481
-606 -642 -126 -96 -398 -285 -425 -295 -12 -5 -15 6 -15 59 0 75 -9 64 155
182 161 115 147 95 147 210 -1 55 1 125 4 156 5 54 8 57 47 80 139 77 319 228
412 346 67 83 151 247 166 322 7 34 15 61 19 61 3 0 17 -8 32 -18z m931 -10
c-3 -12 -12 -22 -20 -22 -12 0 -12 2 1 16 9 8 16 20 16 26 0 6 2 9 5 7 2 -3 2
-15 -2 -27z m-6373 -7 c0 -7 -6 -18 -14 -24 -20 -17 -44 13 -26 33 13 17 40
10 40 -9z m8143 0 c4 -8 2 -17 -4 -21 -15 -9 -39 3 -39 21 0 19 36 20 43 0z
m-4309 -41 c14 -5 16 -42 16 -309 l0 -302 -22 2 c-13 1 -26 3 -30 4 -10 1 -10
379 -1 514 6 97 8 102 37 91z m476 -298 c0 -318 0 -316 -41 -316 -10 0 -13
603 -2 613 3 4 15 7 25 7 17 0 18 -16 18 -304z m-324 -29 l-1 -312 -25 0 -25
0 -2 305 c-1 168 0 310 2 316 2 6 14 9 28 7 l24 -5 -1 -311z m184 3 l0 -320
-25 0 c-29 0 -28 -23 -29 377 l-1 252 25 4 c14 2 26 5 28 6 1 0 2 -143 2 -319z
m-3437 279 c23 -17 115 -78 205 -136 89 -58 162 -108 162 -112 0 -4 -11 -18
-25 -31 l-25 -24 -38 22 c-20 12 -94 50 -163 86 -135 69 -138 72 -159 166 -16
73 -16 73 43 29z m6677 -40 c-7 -33 -20 -69 -29 -79 -9 -10 -63 -42 -121 -73
-58 -30 -125 -66 -150 -81 -25 -14 -48 -26 -52 -26 -3 0 -20 12 -38 26 l-31
26 78 49 c43 26 139 88 213 137 74 50 137 88 139 86 2 -2 -2 -31 -9 -65z
m-5548 -88 c52 -154 168 -381 281 -553 53 -81 97 -151 97 -154 0 -4 -18 -26
-40 -50 -26 -29 -40 -53 -40 -71 0 -28 -15 -62 -23 -53 -2 3 -20 29 -40 58
-31 45 -35 57 -26 79 19 49 -15 103 -65 103 -26 0 -36 8 -60 46 l-29 46 41 35
c29 24 39 39 35 51 -13 34 -125 222 -134 222 -22 0 -13 -25 41 -121 l59 -104
-26 -27 c-15 -16 -29 -28 -32 -28 -3 0 -28 34 -54 75 -41 66 -49 86 -57 153
-6 42 -17 131 -25 197 -22 176 -21 180 18 193 17 5 34 10 37 11 3 1 22 -48 42
-108z m4461 94 c33 -13 35 -18 31 -47 -3 -18 -16 -123 -28 -234 -18 -154 -27
-205 -40 -220 -10 -10 -31 -41 -47 -67 -28 -46 -31 -48 -51 -35 -39 26 -45 45
-24 81 85 144 97 170 87 180 -13 13 -6 23 -80 -108 -55 -98 -60 -112 -50 -132
7 -13 16 -23 20 -23 5 0 16 -11 24 -24 15 -23 15 -27 -11 -65 -20 -31 -33 -41
-54 -41 -15 0 -36 -10 -50 -25 -19 -20 -22 -31 -17 -66 5 -35 0 -49 -30 -96
-19 -30 -40 -52 -46 -50 -6 2 -12 20 -12 40 -1 28 -12 47 -43 81 -23 25 -42
48 -42 52 0 4 22 36 49 73 145 197 274 449 341 664 14 42 27 77 31 77 4 0 23
-7 42 -15z m-2758 -140 c36 -35 34 -88 -5 -127 -27 -27 -30 -36 -30 -94 0 -67
-3 -72 -32 -50 -13 9 -18 27 -18 63 0 34 -5 55 -16 64 -48 40 -54 124 -11 154
33 23 84 19 112 -10z m1076 15 c10 -6 26 -24 34 -41 20 -38 5 -95 -29 -110
-20 -10 -22 -16 -18 -63 4 -47 1 -55 -19 -69 -12 -9 -26 -14 -31 -11 -4 3 -8
34 -8 69 0 46 -4 64 -14 68 -8 3 -22 20 -31 38 -40 77 40 159 116 119z m-4247
-97 c55 -26 103 -48 105 -50 3 -2 -8 -16 -22 -31 -15 -16 -27 -33 -27 -40 0
-17 -18 -14 -69 11 -39 19 -48 30 -72 90 -15 37 -25 67 -22 67 3 0 51 -21 107
-47z m7411 20 c-3 -15 -16 -47 -28 -72 -18 -39 -30 -49 -69 -63 -47 -17 -48
-17 -59 5 -6 12 -20 29 -30 37 -18 14 -13 18 79 67 53 28 101 52 106 52 4 1 5
-11 1 -26z m-7087 -10 c-35 -74 -43 -83 -62 -77 -31 10 -31 12 -1 35 15 12 32
28 39 35 12 14 30 19 24 7z m89 -74 c-14 -22 -26 -41 -28 -42 -2 0 -19 5 -37
11 -36 12 -37 23 -5 85 l14 27 40 -20 40 -21 -24 -40z m6568 31 c14 -27 25
-51 25 -54 0 -2 -11 -7 -24 -10 -13 -3 -31 -9 -39 -12 -11 -4 -22 7 -36 35
-12 22 -21 44 -21 48 0 9 49 42 62 43 4 0 19 -22 33 -50z m95 -22 c0 -4 -4 -8
-9 -8 -5 0 -16 -2 -23 -5 -9 -4 -21 10 -36 39 l-21 45 44 -31 c25 -18 45 -35
45 -40z m-7927 26 c18 -6 273 -382 264 -390 -11 -11 -110 61 -157 114 -54 60
-128 165 -175 246 l-29 49 40 -7 c21 -4 47 -9 57 -12z m9107 10 c0 -3 -29 -49
-64 -102 -68 -104 -152 -205 -201 -244 -40 -32 -105 -71 -105 -63 0 3 27 45
60 93 34 48 90 132 127 187 36 55 69 104 73 109 14 15 110 33 110 20z m-7734
-59 c7 -16 -22 -75 -37 -75 -13 0 -69 29 -69 36 0 2 9 23 20 45 l21 39 30 -15
c16 -9 32 -22 35 -30z m1602 -83 c101 -150 222 -299 326 -402 l96 -95 0 -209
0 -209 68 -66 c37 -36 110 -105 162 -152 91 -83 95 -88 96 -129 0 -55 45 -100
100 -100 86 0 127 109 64 172 -26 26 -36 29 -80 27 l-49 -3 -118 106 c-65 59
-133 120 -150 137 l-33 30 0 172 0 172 33 -25 32 -26 3 -105 3 -106 81 -73
c45 -40 107 -97 139 -126 48 -45 61 -52 83 -46 14 3 26 12 26 19 0 6 -61 67
-135 135 l-135 122 0 65 0 64 43 -34 c23 -18 87 -64 142 -102 55 -38 102 -72
105 -75 3 -3 41 -29 85 -58 44 -28 89 -57 100 -65 19 -14 20 -26 21 -341 l0
-327 -23 6 c-13 3 -49 18 -80 33 -52 24 -58 31 -64 64 -5 31 -23 53 -105 130
-112 105 -301 286 -416 399 l-78 75 0 174 0 173 -154 157 c-127 130 -156 165
-170 206 -31 96 -104 369 -93 350 7 -11 41 -62 75 -114z m3108 -45 c-82 -270
-62 -235 -228 -401 l-148 -149 -1 -51 c-1 -28 -2 -149 -3 -269 l-1 -218 -110
-101 c-208 -191 -245 -227 -245 -243 0 -8 -8 -15 -18 -15 -10 0 -22 -4 -27 -8
-16 -13 -137 -63 -142 -58 -3 2 -2 33 2 68 l7 63 106 95 c58 52 161 146 229
209 l123 114 0 152 c0 127 -3 154 -15 159 -40 15 -45 0 -45 -147 l0 -140 -47
-49 c-27 -26 -51 -48 -55 -48 -5 0 -8 99 -8 220 l0 220 62 58 c154 141 208
195 317 317 106 118 251 317 251 344 0 6 4 11 9 11 5 0 13 10 17 23 4 13 9 17
12 9 2 -7 -17 -81 -42 -165z m1637 146 c29 -56 29 -69 2 -81 -40 -18 -49 -15
-72 25 l-21 37 36 23 c20 12 38 23 39 23 1 0 9 -12 16 -27z m-7424 -29 c469
-99 606 -135 622 -165 12 -22 2 -24 -51 -9 -40 12 -614 146 -703 165 -33 7
-68 21 -80 33 -12 12 -17 22 -12 22 5 0 106 -21 224 -46z m8631 23 c-19 -18
-58 -31 -155 -51 -71 -16 -251 -57 -399 -92 -148 -35 -271 -64 -273 -64 -2 0
-3 7 -3 15 0 29 36 40 470 136 151 34 289 65 305 69 17 4 41 8 55 9 l25 1 -25
-23z m-7266 -67 c4 -25 9 -56 12 -70 4 -20 -8 -39 -61 -95 -121 -130 -228
-309 -280 -472 l-27 -82 -35 14 c-44 18 -43 18 -43 -1 0 -8 16 -22 35 -30 37
-15 40 -24 26 -70 -5 -16 -14 -48 -20 -70 l-11 -42 -72 19 c-39 10 -73 21 -75
23 -8 8 55 242 91 334 84 220 183 370 356 537 90 86 92 87 104 5z m5787 8
c131 -117 255 -292 333 -467 51 -114 129 -368 124 -403 -3 -19 -12 -25 -66
-36 -34 -8 -69 -12 -76 -9 -7 3 -19 33 -25 67 -7 34 -14 67 -17 74 -3 7 11 20
31 29 19 9 35 24 35 32 0 14 -4 14 -35 0 -27 -11 -37 -11 -40 -2 -2 7 -12 35
-20 62 -27 82 -132 290 -179 352 -24 32 -72 91 -106 132 -61 72 -62 74 -55
120 11 79 17 111 22 111 2 0 36 -28 74 -62z m-6347 29 c17 -13 17 -15 2 -45
-19 -37 -18 -37 -74 -15 l-43 16 27 29 c30 30 60 36 88 15z m6899 -14 l38 -27
-48 -19 c-66 -26 -64 -26 -79 15 -11 34 -11 39 4 48 27 15 43 12 85 -17z
m-6590 -28 c-16 -17 -29 -31 -31 -30 -2 2 5 18 14 38 11 22 22 33 30 30 11 -4
7 -13 -13 -38z m6212 15 c22 -43 19 -47 -15 -15 -16 15 -27 32 -24 37 10 15
23 8 39 -22z m-6429 -5 c28 -12 34 -19 30 -35 -3 -11 -9 -29 -12 -41 -3 -11
-9 -19 -12 -17 -4 2 -24 10 -44 18 -43 16 -44 19 -23 60 18 35 15 34 61 15z
m6698 -21 c9 -20 16 -37 14 -38 -22 -12 -81 -36 -87 -36 -5 0 -13 18 -19 39
-10 40 -9 40 27 55 48 20 45 21 65 -20z m-7579 -21 c66 -14 201 -46 300 -70
99 -25 205 -51 235 -57 84 -19 96 -29 119 -98 12 -34 21 -65 21 -69 0 -3 -26
-1 -57 6 -32 7 -116 26 -187 41 l-128 28 -41 58 -40 57 -111 26 c-61 14 -142
32 -181 41 -74 17 -90 25 -106 57 -12 22 -27 23 176 -20z m8563 15 c-22 -34
-48 -43 -223 -79 -88 -18 -166 -37 -173 -43 -8 -5 -24 -31 -38 -57 -13 -26
-28 -50 -33 -54 -6 -3 -56 -14 -113 -25 -57 -11 -140 -29 -186 -39 -56 -13
-82 -15 -78 -8 2 7 15 42 27 80 13 37 28 67 35 67 7 0 115 25 241 55 125 31
248 60 273 65 25 6 90 21 145 34 55 13 108 24 119 25 17 1 17 -1 4 -21z
m-7536 -49 c-1 -6 -10 -21 -18 -34 -15 -24 -17 -24 -52 -9 -47 19 -45 16 -26
57 l17 35 41 -19 c22 -10 40 -24 38 -30z m6434 16 c7 -19 14 -37 14 -40 0 -3
-66 -35 -74 -35 -4 0 -39 71 -35 73 5 3 73 36 77 36 2 1 10 -15 18 -34z
m-6700 -60 c-1 -49 -3 -50 -40 -34 -24 11 -46 54 -46 90 0 17 3 17 44 3 43
-15 43 -16 42 -59z m6954 43 c-13 -55 -20 -66 -50 -76 -35 -13 -40 -8 -40 38
0 33 3 37 43 52 57 22 56 22 47 -14z m-6841 -67 c-1 -48 -11 -58 -46 -49 -36
9 -48 34 -38 77 l6 29 40 -16 c32 -12 39 -20 38 -41z m6725 33 c15 -40 6 -64
-31 -79 -20 -8 -37 -14 -39 -13 -1 2 -5 20 -9 41 -7 35 -5 38 26 52 43 18 46
18 53 -1z m-7536 -40 c132 -28 146 -34 168 -75 9 -17 38 -62 65 -100 27 -38
47 -69 44 -69 -13 0 -254 52 -281 61 -24 7 -47 32 -98 109 -36 55 -66 103 -66
106 0 3 12 3 28 -1 15 -4 78 -18 140 -31z m8428 20 c-3 -8 -33 -55 -67 -104
-58 -86 -63 -90 -117 -106 -90 -26 -243 -57 -249 -50 -3 3 7 24 23 47 16 23
44 66 62 96 19 30 43 59 55 64 25 11 252 66 281 68 13 1 16 -4 12 -15z m-7528
-24 c22 -11 -33 -70 -59 -63 -13 4 -18 11 -15 20 4 8 9 26 12 39 6 25 23 26
62 4z m6530 -17 c9 -29 9 -39 -1 -45 -19 -13 -37 -5 -55 24 -16 26 -15 28 3
42 31 23 41 19 53 -21z m-6752 -18 c17 -11 23 -30 28 -86 4 -39 9 -78 12 -88
10 -38 -46 91 -60 138 -16 54 -13 60 20 36z m647 -60 c8 -39 13 -73 10 -78 -3
-5 -63 29 -102 59 -1 1 14 23 35 48 21 25 39 44 40 43 2 -1 9 -34 17 -72z
m5707 -13 c0 -11 -91 -75 -98 -68 -2 3 1 40 8 82 l13 77 39 -41 c21 -23 38
-45 38 -50z m-662 6 c-6 -38 -14 -68 -18 -68 -4 0 -15 8 -24 19 -16 17 -15 21
15 70 18 28 33 50 34 49 2 -2 -2 -33 -7 -70z m1252 66 c0 -14 -73 -190 -83
-199 -7 -7 -8 -4 -2 10 4 11 12 55 19 98 11 75 23 96 54 97 6 0 12 -3 12 -6z
m-5688 -117 c-12 -11 -23 -19 -25 -16 -3 2 -7 33 -11 69 l-7 65 32 -48 32 -49
-21 -21z m-1158 84 c23 -9 24 -13 19 -68 -5 -64 -21 -123 -32 -123 -6 0 -31
144 -31 183 0 19 8 21 44 8z m6747 -86 c-8 -52 -18 -95 -21 -95 -15 0 -30 55
-30 111 0 53 3 61 23 69 43 17 44 14 28 -85z m-6681 58 c0 -5 -5 -15 -10 -23
-8 -12 -10 -11 -10 8 0 12 5 22 10 22 6 0 10 -3 10 -7z m6600 -15 c0 -19 -2
-20 -10 -8 -13 19 -13 30 0 30 6 0 10 -10 10 -22z m-3928 -29 c20 -11 20 -17
14 -109 l-7 -98 156 -113 155 -113 0 -129 0 -128 -30 21 c-30 21 -30 22 -30
120 0 93 -1 100 -22 111 -13 7 -59 40 -104 73 -44 34 -102 76 -127 93 l-47 33
0 125 c0 130 2 135 42 114z m1287 -113 l-1 -124 -97 -69 c-53 -37 -122 -87
-153 -111 l-58 -43 0 -98 c0 -100 -3 -110 -43 -124 -16 -6 -17 2 -15 120 l3
128 153 113 152 114 0 95 c0 80 3 98 18 109 39 30 42 20 41 -110z m2302 52
c33 -48 39 -62 28 -69 -8 -5 -32 -20 -55 -33 l-41 -25 -36 52 c-20 29 -37 57
-39 63 -3 13 83 83 95 77 4 -2 26 -32 48 -65z m-5838 31 c23 -17 41 -36 39
-42 -2 -7 -19 -36 -38 -64 l-35 -53 -54 36 -54 36 32 45 c18 25 36 52 42 59
14 20 20 18 68 -17z m1960 10 c27 -38 -3 -80 -43 -59 -23 13 -29 30 -19 58 11
28 43 29 62 1z m1888 -5 c19 -52 -50 -90 -72 -40 -15 32 4 66 37 66 17 0 27
-8 35 -26z m-4749 -5 c30 -8 42 -19 59 -50 11 -23 18 -43 15 -46 -3 -3 -26 -2
-51 1 -40 6 -50 14 -80 54 -19 26 -35 50 -35 54 0 7 34 3 92 -13z m7615 -16
c-25 -46 -59 -71 -110 -78 l-48 -7 22 45 c23 47 27 49 104 63 16 3 32 7 34 10
12 12 11 -7 -2 -33z m-5981 -16 c18 -26 21 -42 17 -89 -5 -47 -11 -61 -39 -89
-38 -37 -37 -38 -51 71 -10 78 -5 103 26 127 22 17 23 17 47 -20z m4337 -5
c17 -19 18 -28 8 -109 -6 -48 -11 -92 -11 -98 0 -5 -18 8 -39 29 -33 32 -39
44 -34 66 3 15 0 37 -6 49 -9 17 -7 29 9 61 22 44 35 44 73 2z m-2717 19 c5
-5 33 -16 62 -26 l52 -17 0 -73 c0 -86 -4 -81 129 -178 148 -110 132 -76 129
-274 l-3 -171 -52 31 -53 32 0 147 c0 80 -3 153 -6 162 -3 9 -29 33 -58 53
-28 20 -92 68 -142 105 -91 68 -91 68 -98 121 -10 83 -8 97 12 97 10 0 22 -4
28 -9z m1074 -63 l-1 -73 -136 -100 c-75 -55 -145 -108 -155 -117 -16 -16 -18
-36 -18 -173 l0 -155 -41 -25 c-71 -45 -67 -55 -65 139 l1 175 125 93 125 94
3 80 3 80 67 26 c37 14 73 26 80 27 8 1 12 -19 12 -71z m-4125 38 c55 -11 62
-16 84 -55 13 -23 22 -43 20 -45 -9 -7 -175 27 -186 37 -6 7 -18 29 -27 51
l-16 38 33 -7 c17 -3 59 -12 92 -19z m7238 -21 c-8 -25 -16 -45 -16 -45 -1 0
-45 -9 -97 -19 -52 -11 -96 -18 -98 -16 -2 2 6 21 17 43 20 39 24 41 98 57 43
9 83 18 88 20 22 8 23 3 8 -40z m-6448 -12 c13 -59 26 -119 30 -133 3 -8 0
-21 -4 -29 -8 -12 -20 -8 -65 22 -31 21 -56 40 -56 44 0 11 75 123 82 123 4 0
10 -12 13 -27z m5595 -4 c0 -4 11 -25 25 -45 14 -20 25 -41 25 -45 0 -9 -100
-79 -112 -79 -12 0 -10 35 8 108 24 100 22 96 39 82 8 -7 15 -16 15 -21z
m-3088 -20 c24 -6 93 -19 153 -28 95 -14 124 -15 210 -4 91 11 197 33 238 49
15 5 17 -2 17 -52 l0 -59 -128 -95 -127 -95 -3 -206 -2 -207 -42 -27 c-41 -27
-42 -27 -72 -10 -69 40 -66 28 -66 251 l0 204 -125 87 -124 88 -1 64 c0 51 3
62 14 58 8 -3 34 -11 58 -18z m-2695 -54 l51 -34 -34 -65 -34 -64 -55 30 c-48
25 -55 33 -49 51 8 28 57 117 64 117 3 0 28 -16 57 -35z m6007 2 c10 -17 24
-48 31 -68 l13 -37 -48 -26 c-26 -14 -50 -26 -54 -26 -3 0 -20 27 -36 61 -25
48 -29 64 -19 75 6 8 16 14 21 14 5 0 21 9 35 20 33 26 35 26 57 -13z m-4293
-249 c0 -40 3 -122 5 -183 4 -104 5 -111 32 -136 15 -14 150 -142 300 -284
150 -141 271 -259 269 -262 -3 -2 -60 19 -128 47 -68 29 -132 54 -142 57 -14
4 -17 12 -12 31 7 29 -1 38 -215 230 l-105 94 -5 -110 -5 -110 -45 18 -45 18
-5 284 c-4 203 -9 289 -17 300 -12 13 -83 250 -83 273 0 5 45 -36 100 -92
l100 -102 1 -73z m2695 220 c-7 -24 -28 -89 -45 -146 -33 -102 -33 -103 -39
-383 l-7 -281 -90 -34 c-49 -19 -139 -55 -199 -80 -59 -25 -110 -43 -112 -41
-3 2 46 50 109 105 62 55 132 121 155 146 l41 45 -1 255 c-1 141 0 258 3 261
33 39 186 194 191 194 4 1 1 -18 -6 -41z m414 -77 c6 -33 4 -44 -11 -57 -40
-36 -18 -114 32 -114 53 0 69 15 69 67 0 35 8 60 32 99 28 47 35 53 72 57 37
4 45 0 85 -38 51 -50 54 -43 -55 -188 -41 -54 -74 -102 -74 -107 0 -5 -16 -16
-35 -24 -42 -18 -55 -55 -31 -90 20 -32 49 -40 83 -24 34 16 44 69 19 97 -15
16 -10 25 55 114 39 53 73 97 75 97 12 0 -11 -121 -36 -190 -15 -41 -31 -95
-34 -120 -13 -82 -38 -195 -46 -204 -10 -10 -202 179 -261 257 -24 33 -62 89
-84 125 -22 37 -51 83 -63 102 -28 45 -28 61 4 91 14 13 49 54 77 91 l52 68
33 -34 c22 -22 37 -48 42 -75z m-3594 47 c20 -29 55 -71 76 -93 l38 -41 -55
-94 c-102 -172 -171 -259 -307 -388 l-75 -71 -22 117 c-12 64 -37 162 -56 217
-18 55 -36 125 -40 155 l-7 55 59 -80 c83 -112 87 -121 72 -156 -9 -22 -9 -36
-1 -54 21 -45 103 -45 123 -1 14 30 -12 83 -43 88 -14 2 -51 45 -115 133 -51
71 -93 132 -93 135 0 3 19 24 43 47 39 38 45 40 84 34 36 -5 46 -13 78 -59 30
-44 35 -58 29 -86 -7 -42 21 -76 64 -76 39 0 52 12 59 52 4 29 1 40 -16 54
-35 30 -28 81 16 126 20 21 40 38 44 38 4 0 24 -24 45 -52z m-1088 -32 c23
-16 42 -30 42 -33 0 -2 -13 -30 -30 -63 l-30 -59 -44 25 c-70 39 -71 44 -36
114 21 42 34 58 43 53 7 -4 31 -21 55 -37z m-1048 9 c0 -24 -3 -25 -54 -25
-56 0 -72 9 -62 35 4 11 22 15 61 15 52 0 55 -1 55 -25z m128 3 c-3 -20 -10
-23 -55 -26 -51 -3 -53 -2 -53 22 0 25 3 26 56 26 52 0 55 -1 52 -22z m137 2
c18 -20 17 -20 -28 -20 -26 0 -47 2 -47 4 0 2 -3 11 -6 20 -10 25 58 21 81 -4z
m6530 -40 c16 -33 27 -61 24 -64 -2 -2 -26 -17 -54 -34 l-49 -31 -34 61 c-18
33 -30 64 -25 68 21 19 89 60 98 60 6 0 24 -27 40 -60z m765 40 c-8 -15 -21
-20 -56 -20 -42 0 -44 1 -34 20 8 15 21 20 56 20 42 0 44 -1 34 -20z m160 -6
c0 -24 -2 -25 -52 -22 -46 3 -53 6 -56 26 -3 21 0 22 52 22 53 0 56 -1 56 -26z
m118 20 c13 -4 22 -14 22 -25 0 -16 -8 -19 -55 -19 -52 0 -55 1 -55 25 0 22 4
25 33 25 17 0 42 -3 55 -6z m170 -21 c3 -22 0 -23 -57 -23 -33 0 -63 5 -66 10
-15 24 4 35 61 35 54 0 59 -2 62 -22z m-8548 5 c0 -9 3 -9 12 0 7 7 29 12 50
12 36 0 38 -2 38 -30 0 -28 -2 -30 -40 -30 -25 0 -40 5 -41 13 0 10 -2 10 -6
0 -8 -22 -67 -15 -92 11 -26 27 -18 34 42 35 22 1 37 -4 37 -11z m250 -13 c0
-24 -3 -25 -59 -25 -44 0 -60 4 -65 16 -12 30 -5 34 59 34 63 0 65 -1 65 -25z
m153 5 c-5 -17 -14 -20 -69 -20 -57 0 -64 2 -64 20 0 18 7 20 69 20 64 0 69
-1 64 -20z m307 5 c0 -8 -4 -15 -10 -15 -5 0 -10 7 -10 15 0 8 5 15 10 15 6 0
10 -7 10 -15z m243 9 c64 -11 41 -24 -42 -24 -61 0 -80 3 -85 15 -4 12 4 15
42 15 26 0 64 -3 85 -6z m7041 -9 c-5 -11 -24 -15 -80 -15 -41 0 -74 4 -74 9
0 13 26 19 97 20 52 1 61 -2 57 -14z m136 0 c0 -8 -4 -15 -10 -15 -5 0 -7 7
-4 15 4 8 8 15 10 15 2 0 4 -7 4 -15z m568 -7 c-4 -27 -24 -32 -84 -23 -35 5
-44 10 -44 26 0 17 7 19 66 19 62 0 65 -1 62 -22z m100 -12 c3 -26 1 -28 -20
-23 -13 4 -31 7 -40 7 -13 0 -18 8 -18 26 0 23 3 25 38 22 33 -3 37 -6 40 -32z
m91 28 l32 -7 -22 -23 c-21 -22 -79 -34 -79 -16 0 4 -3 17 -6 30 -5 18 -2 22
19 22 13 0 39 -3 56 -6z m-8154 -81 c13 -19 13 -22 -1 -27 -32 -12 -44 -6 -44
23 0 34 22 36 45 4z m113 -1 l15 -23 -48 3 c-39 2 -49 7 -56 26 -8 22 -7 23
32 20 30 -2 46 -9 57 -26z m120 11 c-5 -26 -73 -35 -93 -13 -24 26 -19 30 41
30 47 0 55 -3 52 -17z m6563 -30 c43 -99 44 -90 -11 -118 -27 -14 -53 -25 -58
-25 -9 0 -52 97 -52 117 0 7 18 22 39 33 22 11 42 24 46 30 10 17 15 12 36
-37z m417 22 c-10 -22 -16 -25 -47 -19 -34 6 -50 19 -51 37 0 4 25 7 55 7 l55
0 -12 -25z m122 16 c0 -31 -14 -41 -56 -41 -48 0 -49 2 -34 31 8 14 21 19 50
19 22 0 40 -4 40 -9z m64 -18 c9 -22 -1 -31 -29 -25 -28 5 -29 6 -15 32 11 21
35 17 44 -7z m-7734 -17 l0 -34 -55 -4 c-57 -3 -65 2 -65 42 0 19 19 25 88 29
30 1 32 -1 32 -33z m138 7 c-3 -26 -7 -28 -55 -31 l-53 -3 0 30 c0 31 0 31 56
31 54 0 55 0 52 -27z m122 2 c0 -23 -3 -25 -50 -25 -47 0 -50 2 -50 25 0 23 3
25 50 25 47 0 50 -2 50 -25z m703 -1 c29 -15 53 -27 54 -28 3 -3 -43 -115 -49
-121 -9 -9 -108 37 -108 50 0 16 41 125 47 125 2 0 27 -12 56 -26z m6897 1 c0
-23 -3 -25 -50 -25 -47 0 -50 2 -50 25 0 23 3 25 50 25 47 0 50 -2 50 -25z
m130 -5 c0 -29 -1 -30 -48 -30 -57 0 -61 2 -54 35 4 23 9 25 53 25 48 0 49 -1
49 -30z m150 -5 l0 -36 -57 3 c-46 2 -58 7 -61 21 -7 38 5 47 63 47 l55 0 0
-35z m-8431 -37 c1 -25 -3 -28 -31 -28 -22 0 -42 10 -65 32 -18 18 -33 35 -33
39 0 5 26 9 58 11 62 3 70 -3 71 -54z m149 26 c3 -31 3 -32 -54 -39 -63 -8
-74 -1 -74 48 l0 28 63 -3 c61 -3 62 -3 65 -34z m1419 28 c25 -16 40 -162 16
-162 -13 0 -93 53 -93 62 0 14 52 108 59 108 3 0 11 -4 18 -8z m5518 -42 c14
-27 25 -53 25 -58 0 -8 -73 -62 -84 -62 -2 0 -9 13 -15 29 -10 23 -9 39 4 85
10 34 22 56 31 56 7 0 25 -22 39 -50z m1493 13 l-3 -38 -59 3 c-33 1 -62 4
-64 7 -2 2 -1 17 3 34 6 30 8 31 66 31 l60 0 -3 -37z m150 22 c9 -7 -62 -75
-78 -75 -48 0 -58 17 -40 65 9 25 12 25 62 19 29 -4 54 -8 56 -9z m-6290 -53
c2 -13 -3 -25 -13 -28 -23 -9 -38 10 -30 36 9 27 39 22 43 -8z m3772 12 c11
-12 10 -18 -3 -32 -16 -15 -18 -15 -34 0 -13 14 -14 20 -3 32 7 9 16 16 20 16
4 0 13 -7 20 -16z m-5375 -21 c-7 -30 -13 -39 -19 -32 -2 2 -7 16 -11 32 -6
23 -4 27 15 27 19 0 21 -4 15 -27z m-161 -9 c4 -15 5 -28 3 -30 -2 -2 -25 -7
-50 -10 l-47 -7 0 31 c0 24 5 32 23 35 54 10 65 7 71 -19z m104 1 c17 -36 17
-36 -30 -33 -36 3 -43 7 -49 31 -7 26 -6 27 30 27 31 0 40 -5 49 -25z m622
-10 c34 -21 41 -31 36 -49 -8 -33 -35 -96 -41 -96 -15 0 -105 52 -105 60 0 5
9 34 21 65 23 62 23 62 89 20z m5884 1 c9 -19 19 -48 22 -64 6 -29 3 -32 -46
-57 -29 -14 -54 -25 -55 -23 -6 6 -45 99 -45 108 0 8 89 70 101 70 4 0 14 -15
23 -34z m516 14 c-6 -11 -15 -20 -19 -20 -5 0 -11 9 -14 20 -4 16 0 20 19 20
22 0 23 -3 14 -20z m98 -7 c-3 -25 -7 -28 -46 -31 l-43 -3 16 30 c12 24 22 31
46 31 27 0 30 -3 27 -27z m91 21 c26 -6 31 -11 31 -37 0 -30 0 -30 -47 -23
-57 8 -59 10 -45 41 13 27 15 28 61 19z m-7436 -31 c3 -16 5 -29 4 -30 -1 0
-23 -4 -48 -8 -46 -7 -46 -7 -51 24 -6 39 -4 41 48 41 38 0 42 -3 47 -27z
m7597 8 c0 -49 -27 -63 -83 -42 -19 8 -23 15 -20 35 5 24 10 26 54 26 42 0 49
-3 49 -19z m126 -8 c-3 -8 -6 -23 -6 -34 0 -14 -7 -19 -27 -19 -54 0 -73 11
-73 39 0 15 2 30 4 32 2 2 28 2 56 0 40 -2 50 -6 46 -18z m-7973 -20 c4 -20 5
-38 4 -39 -1 -2 -26 -6 -55 -10 l-52 -7 -6 31 c-9 46 -9 46 43 53 27 3 51 7
54 7 4 1 9 -15 12 -35z m129 7 c3 -17 2 -32 0 -35 -3 -3 -27 -5 -54 -5 l-48 0
0 35 0 35 49 0 c47 0 49 -1 53 -30z m7983 -17 c-4 -21 -8 -39 -10 -41 -1 -2
-26 0 -54 4 -50 6 -51 7 -51 40 l0 34 61 0 61 0 -7 -37z m-8260 15 c3 -7 6
-24 7 -38 3 -22 -2 -26 -44 -34 -55 -11 -74 -1 -80 44 -4 23 0 30 16 33 46 9
97 6 101 -5z m2604 -27 l31 -39 -29 -55 c-29 -56 -109 -178 -122 -187 -4 -3
-38 -42 -76 -87 -68 -81 -151 -161 -246 -236 -51 -42 -52 -42 -61 34 -5 45 -4
48 35 74 54 38 220 213 263 277 19 29 54 80 77 113 23 33 51 79 62 103 12 23
24 42 28 42 4 0 21 -18 38 -39z m2431 -185 l-1 -224 -45 -46 c-26 -25 -48 -46
-50 -46 -3 0 -28 -22 -57 -49 -29 -27 -72 -67 -96 -89 l-44 -40 2 -86 2 -87
-76 -34 c-42 -19 -78 -35 -81 -35 -2 0 -4 63 -4 139 l0 140 150 138 149 138 3
95 c1 52 1 121 -1 152 l-2 57 68 50 c37 28 71 51 76 51 4 0 7 -101 7 -224z
m758 122 c93 -158 166 -250 287 -366 105 -99 115 -112 115 -145 0 -63 -7 -70
-44 -45 -141 99 -297 268 -418 453 -86 133 -85 131 -46 172 18 18 36 32 41 30
4 -1 34 -46 65 -99z m2575 96 c32 -6 37 -10 37 -34 0 -41 -20 -52 -77 -43 -28
5 -48 14 -47 21 1 6 2 23 3 37 1 27 14 30 84 19z m-8513 -24 c0 -18 -3 -19
-20 -10 -11 6 -20 15 -20 20 0 6 9 10 20 10 13 0 20 -7 20 -20z m8620 12 c0
-4 -9 -13 -20 -20 -18 -11 -20 -10 -20 8 0 13 7 20 20 20 11 0 20 -3 20 -8z
m-7827 -65 c-4 -19 -10 -26 -20 -23 -8 3 -25 6 -38 6 -16 0 -24 7 -27 24 -5
23 -2 25 36 28 51 4 56 0 49 -35z m743 -7 l21 -16 -20 -51 -19 -52 -47 26
c-25 15 -47 27 -49 28 -1 2 7 28 18 58 l21 57 27 -17 c15 -10 36 -24 48 -33z
m5614 -17 l19 -51 -42 -17 c-23 -10 -47 -19 -53 -22 -14 -5 -49 86 -38 97 25
24 80 56 87 50 4 -4 16 -29 27 -57z m-6469 31 c5 -15 8 -28 7 -29 -2 -1 -27
-5 -55 -9 l-53 -7 0 30 c0 27 3 30 38 34 20 2 40 4 45 5 4 1 12 -10 18 -24z
m502 0 c29 -15 53 -28 55 -29 1 -1 -4 -22 -12 -46 -7 -24 -17 -56 -20 -71 -7
-29 -9 -29 -94 2 -37 14 -37 10 -6 118 8 28 17 52 20 52 2 0 28 -12 57 -26z
m6301 -58 l24 -76 -62 -19 -61 -19 -17 67 c-10 36 -18 69 -18 74 0 7 102 57
108 52 1 -1 13 -37 26 -79z m396 75 c0 -29 -14 -41 -50 -41 -32 0 -38 4 -42
25 -5 24 -3 25 43 25 27 0 49 -4 49 -9z m120 -33 c0 -23 -4 -29 -16 -24 -9 3
-31 6 -50 6 -29 0 -34 3 -34 23 0 32 2 33 54 29 44 -4 46 -6 46 -34z m-7447
10 c9 -32 -11 -49 -52 -46 -31 3 -36 7 -39 30 -3 23 1 27 30 31 18 2 38 5 44
5 7 1 14 -8 17 -20z m7567 7 c4 -3 5 -16 2 -30 -5 -26 -23 -31 -69 -19 -18 5
-23 14 -23 36 0 30 1 30 42 24 22 -4 44 -9 48 -11z m-6513 -17 c-3 -8 -6 -5
-6 6 -1 11 2 17 5 13 3 -3 4 -12 1 -19z m5370 0 c-3 -8 -6 -5 -6 6 -1 11 2 17
5 13 3 -3 4 -12 1 -19z m1271 7 c2 -2 0 -14 -4 -29 -5 -23 -11 -26 -50 -26
-42 0 -44 2 -44 28 0 16 3 32 7 35 5 6 82 -1 91 -8z m-7815 -17 c3 -12 4 -25
1 -30 -6 -10 -94 -11 -94 0 0 4 -3 17 -6 30 -6 21 -3 22 44 22 43 0 50 -3 55
-22z m-123 -14 c6 -14 10 -27 10 -29 0 -5 -101 -18 -105 -14 -2 2 -6 16 -10
31 -6 23 -4 27 22 31 64 9 73 8 83 -19z m8058 17 c8 -4 12 -19 10 -32 -3 -22
-7 -24 -52 -21 -27 1 -52 4 -54 7 -2 2 -2 16 2 30 5 21 12 25 44 25 20 0 43
-4 50 -9z m-8189 -59 c-5 -2 -26 7 -46 20 l-38 23 35 5 c30 5 37 2 47 -20 6
-14 7 -26 2 -28z m8309 42 c5 -4 -75 -44 -87 -44 -5 0 -5 12 2 29 10 26 14 29
46 24 20 -3 38 -7 39 -9z m-7158 -29 c28 -14 48 -31 45 -38 -2 -6 -11 -35 -20
-64 l-16 -51 -52 21 c-29 11 -54 22 -56 23 -7 6 32 134 41 134 5 0 31 -11 58
-25z m282 8 c12 -14 58 -139 58 -159 0 -8 -119 72 -120 81 0 16 32 95 40 95 4
0 14 -8 22 -17z m5407 -35 l20 -47 -60 -41 c-32 -22 -59 -35 -59 -28 0 34 35
135 53 151 24 21 21 23 46 -35z m313 17 c5 -16 12 -47 17 -67 l9 -37 -59 -20
-59 -20 -11 41 c-20 78 -18 90 26 115 50 29 66 26 77 -12z m-6552 5 c0 -11 -6
-20 -14 -20 -8 0 -21 -3 -30 -6 -12 -5 -16 0 -16 20 0 22 4 26 30 26 23 0 30
-4 30 -20z m7078 -2 c-2 -17 -10 -23 -28 -23 -18 0 -26 6 -28 23 -3 19 1 22
28 22 27 0 31 -3 28 -22z m-7168 -7 c0 -14 -10 -20 -46 -25 -50 -6 -64 -2 -64
19 0 16 20 22 73 24 30 1 37 -3 37 -18z m2190 -195 l0 -214 -49 20 c-47 20
-49 22 -55 72 -3 28 -6 79 -6 114 0 58 4 70 48 142 26 44 50 79 55 80 4 0 7
-96 7 -214z m2090 94 c0 -119 0 -121 -27 -146 -16 -14 -83 -75 -150 -137
l-121 -112 -1 -161 c-1 -173 -1 -172 -56 -192 -16 -5 -38 -13 -47 -17 -31 -12
-22 38 12 70 23 22 30 38 30 66 0 51 -8 67 -41 84 -60 32 -119 11 -145 -51
-12 -29 -12 -39 0 -68 8 -19 23 -39 34 -45 22 -12 39 -78 23 -94 -10 -10 -120
-57 -133 -57 -5 0 -8 130 -8 290 l0 289 43 29 c23 15 96 61 162 101 66 40 188
117 270 171 83 54 151 99 153 99 1 1 2 -53 2 -119z m801 33 c48 -73 50 -81 45
-128 -3 -27 -6 -76 -6 -108 l0 -58 -46 -19 c-25 -11 -46 -20 -47 -20 -1 0 -3
95 -4 211 -1 117 0 209 3 206 3 -3 28 -40 55 -84z m2225 65 c2 -15 -6 -18 -57
-18 -32 0 -59 2 -59 4 0 2 3 12 6 21 9 24 106 17 110 -7z m-7426 -8 c0 -17 -7
-20 -50 -20 -37 0 -50 4 -50 14 0 14 23 21 78 25 16 1 22 -4 22 -19z m7518 14
c40 -11 26 -34 -21 -34 -48 0 -58 5 -50 26 5 15 33 18 71 8z m-7635 -18 c5
-11 -5 -17 -38 -21 -24 -4 -48 -4 -54 0 -22 13 -10 24 32 28 23 2 45 4 48 5 4
1 9 -5 12 -12z m7776 -3 c3 -2 0 -8 -6 -14 -17 -17 -93 -1 -86 17 4 10 16 12
47 8 22 -4 43 -8 45 -11z m-7904 -3 c4 -6 -9 -10 -32 -9 -38 1 -38 1 -8 9 17
4 31 8 32 9 1 0 5 -3 8 -9z m7999 0 c33 0 11 -10 -33 -15 -39 -3 -50 3 -34 19
4 4 17 5 28 2 11 -3 29 -6 39 -6z m-7342 -34 c44 -10 52 -15 49 -31 -2 -11 -9
-44 -15 -74 -12 -60 -2 -56 -115 -52 l-44 1 7 63 c13 111 16 118 42 111 13 -3
47 -11 76 -18z m482 1 c44 -25 42 -21 27 -82 -6 -26 -17 -45 -25 -45 -12 0
-86 28 -94 35 -8 7 32 115 42 115 6 0 29 -10 50 -23z m856 8 c17 -20 5 -45
-20 -45 -23 0 -35 22 -26 45 7 19 30 19 46 0z m3994 0 c8 -23 -4 -45 -25 -45
-22 0 -34 22 -25 45 3 8 14 15 25 15 10 0 21 -7 25 -15z m881 -35 c9 -28 15
-56 12 -63 -6 -16 -87 -41 -97 -30 -8 10 -33 94 -28 98 7 6 84 44 90 45 3 0
14 -23 23 -50z m508 28 c4 -13 9 -53 13 -89 l6 -66 -63 -5 c-35 -3 -69 -3 -75
-1 -14 5 -40 131 -30 141 6 6 111 37 137 41 4 1 9 -9 12 -21z m-5635 -25 c5
-10 17 -55 26 -100 9 -46 19 -89 21 -95 3 -8 -21 -29 -55 -50 -40 -25 -62 -33
-64 -25 -18 60 -57 229 -54 231 7 7 103 55 110 56 4 0 11 -8 16 -17z m4523 -8
c57 -30 67 -46 47 -78 -8 -12 -21 -53 -28 -92 -21 -114 -17 -110 -83 -68 -31
20 -57 41 -57 48 0 60 44 215 61 215 5 0 32 -11 60 -25z m-5409 -33 c5 -5 4
-28 -3 -56 l-12 -47 -61 3 -61 3 3 30 c2 17 8 46 13 67 l9 36 52 -13 c28 -8
55 -18 60 -23z m6348 -27 c6 -30 9 -59 5 -65 -3 -5 -33 -10 -65 -10 -47 0 -60
3 -64 18 -9 32 -18 82 -14 82 2 0 21 7 43 15 73 26 82 22 95 -40z m-5928 14
c26 -17 48 -34 48 -39 0 -8 -21 -73 -26 -79 -1 -1 -28 9 -58 23 -38 18 -56 33
-56 45 0 29 21 81 33 81 5 0 32 -14 59 -31z m5458 6 c26 -69 26 -71 -34 -99
-30 -14 -59 -26 -64 -26 -5 0 -13 20 -19 46 l-10 45 51 29 c28 17 54 30 59 30
4 0 12 -11 17 -25z m-6304 -41 c-5 -24 -15 -38 -36 -49 -38 -19 -35 -20 -58
19 l-20 34 56 25 c32 13 59 20 61 15 1 -5 0 -25 -3 -44z m7182 6 c3 0 1 -5 -6
-12 -7 -7 -12 -20 -12 -29 0 -27 -16 -31 -49 -14 -36 18 -37 20 -46 68 l-7 38
57 -26 c32 -14 60 -25 63 -25z m-6654 14 c48 -16 48 -17 41 -53 -4 -20 -8 -37
-9 -38 -1 -1 -28 1 -59 4 l-58 6 7 41 c10 65 8 64 78 40z m6080 8 c3 -5 8 -27
12 -49 l6 -41 -53 -4 c-62 -5 -66 -3 -71 37 -3 27 1 31 42 47 53 20 57 21 64
10z m-624 -136 c-49 -121 -90 -361 -90 -536 0 -112 21 -260 45 -324 l17 -45
-32 -41 c-17 -22 -35 -40 -39 -40 -20 0 -36 195 -36 430 1 205 4 268 23 385
20 122 42 227 58 274 3 9 16 -2 36 -30 29 -40 30 -45 18 -73z m-4832 67 c6
-21 14 -56 17 -78 4 -22 13 -71 20 -110 35 -181 45 -574 20 -754 -8 -57 -18
-107 -21 -110 -6 -6 -46 38 -64 70 -6 10 -4 25 4 40 39 76 58 259 45 454 -11
163 -32 279 -70 373 -16 41 -29 77 -29 82 0 11 50 70 59 70 4 0 13 -17 19 -37z
m5022 -39 c0 -30 -28 -53 -41 -33 -11 18 -11 26 3 74 l11 40 13 -30 c7 -16 13
-40 14 -51z m-6297 34 l14 -33 -61 -32 c-34 -18 -64 -32 -67 -33 -3 0 -13 16
-22 35 l-17 35 63 29 c34 16 65 30 69 30 5 1 14 -14 21 -31z m807 9 c27 -13
35 -34 21 -56 -7 -11 -17 -11 -60 -1 -46 11 -51 15 -51 39 0 15 3 31 7 35 8 8
46 0 83 -17z m257 -34 c6 -45 -4 -57 -29 -39 -14 10 -15 18 -5 54 13 48 26 42
34 -15z m5535 -5 c-4 -4 -27 -11 -52 -17 -33 -7 -46 -7 -52 2 -18 28 -7 44 40
59 l47 15 12 -26 c6 -14 8 -29 5 -33z m803 33 c65 -30 65 -30 53 -58 -6 -15
-15 -32 -19 -36 -8 -10 -129 49 -129 62 0 15 19 61 25 61 3 0 35 -13 70 -29z
m-4040 -16 l54 -34 1 -246 c0 -135 -4 -245 -8 -245 -17 0 -61 -52 -64 -76 -3
-22 -5 -23 -28 -11 l-25 13 -3 317 c-1 219 1 317 8 317 6 0 35 -16 65 -35z
m-2433 -33 c43 -20 55 -30 49 -41 -7 -11 -18 -10 -65 3 -49 14 -56 20 -56 41
0 30 1 30 72 -3z m5532 12 c13 -33 9 -36 -76 -58 -43 -12 -48 -11 -48 3 0 10
21 28 53 43 62 32 63 32 71 12z m-6299 -64 l30 -5 -44 -18 c-24 -10 -45 -17
-46 -15 -1 2 -12 22 -23 44 l-21 41 22 10 c19 9 24 6 37 -21 11 -21 24 -32 45
-36z m7079 55 c19 -14 18 -16 -7 -54 -26 -38 -29 -40 -55 -29 -43 18 -45 25
-14 31 23 5 32 13 37 37 7 34 12 35 39 15z m-7394 -64 c0 -7 -62 -40 -126 -67
-29 -12 -33 -11 -59 16 l-28 29 93 46 94 45 13 -31 c7 -17 13 -34 13 -38z
m7783 9 c26 -12 49 -26 52 -30 2 -4 -8 -19 -24 -34 l-27 -26 -82 37 c-85 40
-94 51 -67 90 17 24 19 24 148 -37z m-5574 -195 c-20 -364 -107 -650 -275
-905 -46 -71 -99 -127 -107 -113 -2 4 -8 22 -11 38 -5 25 1 41 45 100 88 121
163 283 206 450 35 136 50 240 64 437 12 165 13 168 43 205 l31 37 6 -49 c3
-28 3 -117 -2 -200z m3265 165 c3 -14 8 -73 11 -132 18 -358 119 -686 281
-914 31 -44 44 -71 44 -95 0 -61 -13 -64 -57 -12 -43 52 -138 200 -153 238 -5
13 -23 53 -39 88 -44 94 -97 278 -115 398 -22 145 -41 426 -32 473 l8 39 23
-29 c13 -16 26 -40 29 -54z m-5266 18 c12 -23 21 -42 20 -43 -2 -2 -31 -17
-65 -34 l-62 -31 -12 23 c-7 12 -19 32 -27 45 -14 22 -13 23 49 52 35 16 66
29 69 29 3 1 15 -18 28 -41z m7315 6 c26 -14 47 -27 47 -30 0 -19 -44 -74 -58
-74 -9 0 -41 14 -70 30 l-52 31 22 39 c26 44 29 44 111 4z m-6325 -2 c2 -7 -3
-12 -12 -12 -9 0 -16 7 -16 16 0 17 22 14 28 -4z m2495 -17 c28 -19 58 -40 64
-45 10 -8 13 -81 12 -300 0 -160 -2 -290 -3 -290 -2 0 -25 9 -51 21 -40 18
-46 24 -40 42 4 12 10 41 12 64 4 38 1 46 -27 74 l-32 32 -2 219 c-1 120 2
218 6 218 5 0 32 -16 61 -35z m2777 16 c0 -12 -39 -21 -45 -11 -3 5 2 13 12
19 18 10 33 6 33 -8z m-5822 -6 c2 -1 -6 -40 -17 -86 -11 -46 -23 -107 -27
-135 l-6 -52 -57 -6 c-31 -4 -77 -9 -103 -12 -27 -3 -48 -2 -48 3 0 10 67 208
92 271 l13 34 75 -7 c41 -4 76 -8 78 -10z m712 -130 c24 -101 40 -249 40 -362
-1 -146 -30 -318 -50 -296 -15 16 -60 169 -75 258 -25 150 -13 395 26 514 l12
34 14 -34 c8 -19 23 -70 33 -114z m5780 133 c1 -7 23 -76 50 -153 27 -77 47
-141 46 -143 -2 -1 -50 3 -107 10 -100 13 -104 14 -107 38 -4 45 -24 144 -38
194 -8 27 -14 51 -14 52 0 4 66 10 123 12 32 1 47 -2 47 -10z m-6275 -34 c163
-33 287 -70 301 -89 12 -17 6 -75 -8 -75 -5 0 -45 9 -88 20 -101 26 -301 60
-350 60 -48 0 -55 10 -40 58 6 20 13 42 15 49 2 6 12 10 22 8 10 -2 76 -16
148 -31z m5458 14 c33 -144 38 -184 38 -304 0 -71 -5 -164 -11 -205 -10 -77
-68 -269 -80 -269 -31 0 -50 321 -31 515 12 124 21 170 48 243 18 47 28 53 36
20z m616 -32 c16 -65 15 -66 -31 -66 -52 0 -289 -42 -376 -66 -34 -9 -64 -15
-67 -12 -3 3 -8 22 -12 41 l-5 36 101 31 c101 32 360 90 372 84 4 -2 12 -24
18 -48z m-6574 12 c-4 -13 -15 -40 -24 -62 l-16 -38 -23 40 -23 41 38 20 c49
26 56 26 48 -1z m6935 2 l40 -20 -17 -35 c-14 -29 -33 -47 -33 -30 0 2 -9 27
-20 55 -11 27 -17 50 -14 50 2 0 23 -9 44 -20z m-5646 -32 c23 -143 30 -232
42 -515 4 -111 3 -163 -4 -163 -6 0 -38 16 -71 36 l-61 36 0 127 c0 69 -7 189
-15 266 -20 197 -22 185 33 222 26 17 52 32 58 32 6 1 15 -18 18 -41z m4393 7
c46 -31 52 -39 48 -63 -14 -79 -25 -263 -25 -398 l0 -152 -67 -40 -68 -40 -7
76 c-8 76 11 391 32 552 5 41 10 81 10 88 0 20 23 14 77 -23z m1666 -20 l38
-18 -32 -33 c-18 -19 -41 -34 -51 -34 -23 0 -108 42 -108 53 0 5 10 27 22 48
l21 38 36 -18 c20 -10 53 -26 74 -36z m-7930 17 l26 -27 -69 -38 -69 -38 -40
20 c-22 12 -42 25 -45 30 -3 5 13 17 37 27 23 10 60 26 82 35 52 23 47 23 78
-9z m265 -14 c12 -23 21 -42 20 -43 -8 -7 -102 -45 -110 -45 -5 0 -27 15 -50
32 l-40 33 68 32 c38 18 73 33 79 33 5 0 20 -19 33 -42z m7921 5 c83 -37 83
-37 61 -55 -39 -31 -81 -32 -143 -3 -32 15 -60 32 -63 37 -7 11 34 58 50 58 6
0 49 -17 95 -37z m-4809 8 c21 -41 -21 -81 -58 -55 -38 26 -22 74 25 74 12 0
27 -9 33 -19z m-370 -146 c40 -43 36 -43 -85 8 l-80 34 -3 58 -3 58 68 -61
c37 -33 84 -77 103 -97z m4714 62 c-30 -52 -47 -67 -66 -61 -54 17 -131 56
-122 62 6 4 20 24 33 44 l22 38 70 -36 c46 -23 67 -39 63 -47z m-7226 33 c12
-18 22 -36 22 -39 0 -7 -131 -64 -134 -59 -2 2 -15 20 -30 40 l-28 37 64 30
c34 16 68 28 73 27 6 -1 20 -17 33 -36z m-394 -35 c22 -19 37 -36 35 -38 -2
-1 -21 -11 -41 -22 -32 -17 -41 -17 -80 -6 -24 7 -54 19 -67 26 -24 12 -23 13
40 44 35 17 66 31 69 31 3 -1 23 -16 44 -35z m7970 4 c64 -35 63 -38 -17 -65
-46 -15 -51 -15 -88 1 -21 10 -39 21 -39 25 0 10 68 70 79 70 4 0 33 -14 65
-31z m-7730 -80 c-2 -4 -20 -10 -40 -14 -31 -5 -41 -2 -66 22 l-29 28 48 21
48 21 22 -36 c12 -19 19 -39 17 -42z m777 46 c80 -14 159 -29 175 -34 16 -5
42 -12 57 -15 27 -6 28 -9 26 -57 -2 -46 -5 -50 -23 -46 -141 34 -242 49 -359
54 -76 3 -139 9 -142 13 -3 5 9 69 21 109 5 15 16 14 245 -24z m1470 -31 c28
-158 43 -233 54 -260 15 -38 50 -72 90 -90 17 -7 81 -62 143 -121 104 -100
112 -111 112 -145 0 -27 -6 -40 -20 -48 -58 -31 -62 -123 -8 -161 43 -31 82
-29 118 6 41 40 41 91 0 138 -24 27 -30 44 -30 79 0 42 -4 48 -74 116 -41 40
-70 72 -65 72 4 0 61 -18 126 -40 65 -23 152 -50 193 -61 78 -21 206 -59 300
-89 123 -40 229 -61 249 -51 10 6 38 44 60 86 23 41 44 75 47 75 10 0 69 -33
87 -48 13 -11 17 -31 17 -77 l0 -63 -77 -11 c-124 -18 -178 -60 -356 -273
-148 -177 -199 -228 -227 -228 -57 0 -348 180 -430 266 l-60 62 0 120 0 120
-42 48 c-24 26 -104 113 -179 194 l-137 147 8 44 c5 24 11 82 15 129 10 133 9
132 47 117 27 -11 34 -21 39 -53z m2963 -21 c3 -49 11 -118 18 -156 l11 -67
-39 -38 c-21 -20 -66 -67 -99 -103 -33 -36 -99 -107 -147 -157 l-88 -90 0
-122 0 -122 -37 -45 c-20 -25 -63 -62 -94 -83 -79 -54 -289 -180 -317 -191
-37 -14 -74 13 -159 113 -216 256 -284 328 -332 353 -39 19 -141 44 -183 45
-5 0 -8 31 -8 70 l0 70 40 20 c21 11 46 20 54 20 8 0 32 -29 52 -66 20 -36 47
-72 60 -81 25 -16 35 -15 124 11 304 88 572 170 674 205 33 12 63 21 68 21 5
0 -29 -41 -75 -91 -61 -65 -87 -101 -92 -125 -4 -23 -14 -39 -30 -46 -24 -11
-55 -63 -55 -93 0 -66 81 -113 144 -83 37 18 61 65 52 102 -3 13 -17 38 -31
54 -14 17 -25 38 -25 47 0 29 227 263 300 310 77 49 88 74 118 251 11 62 23
117 27 123 6 11 39 29 56 30 3 1 9 -38 13 -86z m1642 27 c6 -30 9 -58 7 -62
-2 -5 -43 -8 -91 -8 -79 0 -267 -26 -367 -50 -64 -15 -65 -15 -61 37 4 44 6
48 41 60 45 15 267 61 356 72 102 14 102 14 115 -49z m616 34 l52 -26 -40 -24
c-44 -27 -53 -28 -88 -13 l-25 12 22 38 c12 22 23 39 25 39 1 0 26 -12 54 -26z
m-5597 -56 c-19 -201 -63 -393 -110 -474 l-16 -29 6 50 c3 28 15 88 26 135 11
46 25 143 31 214 11 118 14 131 37 152 14 13 27 24 29 24 2 0 1 -33 -3 -72z
m3688 8 c2 -11 5 -43 6 -71 2 -73 19 -198 41 -295 38 -171 37 -201 -1 -99 -56
149 -86 281 -104 462 l-7 69 30 -22 c17 -13 33 -32 35 -44z m-5703 -11 l34
-25 -45 1 c-24 0 -53 4 -64 8 -18 7 -17 9 10 23 17 9 30 16 31 17 0 1 15 -10
34 -24z m7733 3 c21 -11 21 -11 2 -19 -11 -4 -38 -8 -60 -8 l-40 -1 25 20 c29
23 43 24 73 8z m-7441 -80 c-7 -7 -12 -27 -12 -45 0 -26 -6 -36 -29 -47 -26
-14 -30 -14 -45 3 -16 17 -14 21 35 65 28 26 54 44 57 41 3 -3 0 -11 -6 -17z
m7148 -38 l34 -30 -21 -21 c-26 -26 -57 -13 -66 28 -4 15 -10 39 -13 52 -6 21
-5 22 12 12 10 -6 35 -24 54 -41z m-4457 -64 c186 -77 227 -96 227 -105 0 -19
-43 -61 -83 -80 -71 -34 -166 -23 -220 27 -35 32 -67 108 -67 162 0 27 2 50 5
50 3 0 65 -24 138 -54z m1107 24 c12 -23 3 -47 -22 -61 -29 -16 -63 19 -54 54
9 39 57 43 76 7z m735 0 c4 -17 0 -52 -9 -82 -43 -150 -234 -198 -332 -84
l-34 40 27 15 c28 16 322 139 335 140 3 1 9 -12 13 -29z m-3967 4 c53 -4 75
-10 79 -21 4 -9 -2 -57 -11 -107 l-17 -91 -147 3 c-81 2 -148 4 -149 6 -5 5
41 212 49 217 9 6 52 4 196 -7z m6169 -49 c7 -33 15 -83 18 -111 l7 -51 -117
-1 c-64 0 -129 -4 -145 -7 -15 -3 -31 -2 -34 3 -6 10 -37 205 -33 208 6 5 199
21 242 20 l50 -1 12 -60z m-6422 33 c-4 -21 -35 -197 -35 -203 0 -2 -19 -6
-42 -10 -24 -4 -68 -15 -98 -25 -30 -10 -56 -17 -57 -16 -7 6 77 229 92 246
16 17 42 24 118 28 24 2 27 -1 22 -20z m6545 10 c53 -12 80 -41 80 -85 0 -10
14 -51 30 -92 17 -40 30 -77 30 -81 0 -5 -15 -4 -32 2 -18 5 -62 17 -98 27
l-64 17 -18 100 c-10 54 -20 105 -23 112 -6 15 28 16 95 0z m-6970 -73 c-13
-14 -27 -25 -32 -25 -14 0 -123 -93 -123 -104 0 -7 40 -15 96 -20 80 -7 102
-6 128 7 37 18 40 7 11 -40 -23 -39 -63 -48 -163 -39 -63 6 -225 40 -234 50
-3 3 39 36 244 194 l56 43 21 -20 20 -21 -24 -25z m7410 -5 c30 -25 90 -72
133 -104 93 -70 93 -70 -62 -97 -183 -32 -252 -21 -269 43 -11 41 -9 44 20 24
36 -25 216 -17 225 10 2 6 -26 33 -62 60 -36 27 -78 59 -93 72 l-27 22 24 20
c26 23 19 26 111 -50z m-7240 52 c0 -5 -3 -12 -7 -16 -5 -4 -13 -21 -18 -38
l-11 -31 -28 25 -29 24 28 22 c28 22 65 30 65 14z m736 -11 c98 -25 98 -26 73
-71 -25 -44 -20 -75 11 -67 16 4 22 -2 30 -31 15 -56 13 -65 -12 -60 -13 3
-74 16 -136 28 -87 18 -112 27 -107 38 3 8 13 52 22 98 18 96 13 93 119 65z
m5598 -3 c3 -13 12 -56 22 -96 9 -40 15 -75 13 -77 -4 -3 -250 -55 -262 -55
-4 0 0 34 9 79 4 16 8 21 15 14 6 -6 19 -8 30 -6 21 6 19 29 -7 70 -24 39 -17
51 39 66 116 34 135 34 141 5z m690 1 l27 -21 -22 -24 c-25 -27 -35 -22 -48
23 -14 48 1 55 43 22z m163 -118 c38 -30 29 -41 -35 -41 -49 0 -100 19 -122
44 -13 16 -11 21 20 46 l35 29 35 -27 c19 -14 49 -37 67 -51z m-7264 44 c15
-13 27 -26 27 -29 0 -3 -21 -17 -46 -32 -42 -25 -50 -26 -105 -18 l-61 9 64
47 c34 26 70 47 78 47 8 0 27 -11 43 -24z m3377 5 c6 -12 8 -30 5 -40 -9 -27
-60 -27 -75 -1 -13 25 -13 27 6 45 21 22 51 20 64 -4z m-1307 -107 c34 -38
101 -109 150 -160 l87 -91 0 -121 0 -120 50 -57 50 -57 0 -189 c0 -161 -3
-194 -17 -221 -18 -32 -18 -30 -23 144 l-5 176 -44 64 c-24 35 -54 75 -66 89
-12 14 -40 51 -63 83 -35 50 -39 62 -31 84 12 33 -5 87 -34 108 -29 20 -90 19
-116 -2 -26 -22 -39 -67 -32 -108 7 -35 61 -75 102 -75 22 0 35 -10 61 -47 17
-26 55 -75 83 -108 93 -110 89 -94 91 -310 l2 -192 -48 -41 c-27 -23 -51 -42
-54 -42 -3 0 -6 69 -6 154 l0 153 -52 70 c-29 39 -69 90 -89 114 -122 149
-229 290 -229 301 0 7 14 42 31 78 38 79 119 319 119 352 0 22 7 38 17 38 2 0
32 -30 66 -67z m3057 53 c0 -38 82 -291 118 -365 23 -46 39 -89 35 -95 -12
-20 -118 -161 -136 -181 -10 -11 -44 -53 -75 -93 -31 -41 -81 -103 -109 -139
l-53 -65 0 -154 c0 -85 -3 -154 -7 -154 -3 0 -26 20 -50 45 l-43 45 0 188 0
187 86 120 c113 159 115 160 165 162 54 3 80 28 86 85 4 37 1 49 -21 75 -34
41 -56 47 -99 29 -50 -20 -71 -56 -64 -107 6 -44 10 -35 -92 -180 -14 -20 -47
-66 -73 -102 l-48 -65 -2 -168 c-3 -154 -4 -167 -18 -144 -11 19 -15 71 -18
215 l-4 190 46 60 45 60 1 118 0 118 111 117 c209 219 219 228 219 198z
m-4490 -161 c58 -8 109 -15 113 -15 5 0 -4 -22 -19 -49 -30 -56 -27 -89 6 -71
12 6 31 31 42 56 20 40 25 44 57 44 62 0 68 -11 36 -67 -16 -26 -31 -50 -34
-53 -3 -3 -13 -18 -21 -35 l-16 -30 -159 -6 c-88 -3 -190 -9 -226 -13 l-66 -8
26 131 25 131 66 0 c36 0 112 -7 170 -15z m6099 -87 c11 -57 24 -117 27 -133
l6 -31 -94 12 c-51 7 -152 13 -224 13 l-131 1 -47 82 c-25 45 -46 85 -46 89 0
8 12 12 61 23 24 5 28 1 43 -37 9 -23 25 -53 35 -67 16 -20 22 -22 34 -11 14
11 12 19 -10 67 -14 30 -22 58 -18 62 11 12 158 30 251 31 l91 1 22 -102z
m128 81 c103 -23 143 -46 142 -83 -1 -12 15 -70 35 -130 20 -60 36 -110 36
-111 0 -1 -31 8 -70 21 -38 12 -96 28 -127 35 -32 7 -61 15 -65 19 -7 5 -58
238 -58 263 0 9 -4 10 107 -14z m-6507 -3 c0 -8 -9 -52 -20 -98 -11 -46 -20
-98 -20 -115 0 -27 -5 -34 -27 -39 -16 -4 -75 -20 -133 -35 -57 -15 -105 -27
-106 -26 -3 3 31 141 51 207 19 64 29 74 99 94 100 30 156 34 156 12z m1070
-96 c10 -18 -6 -174 -21 -201 -12 -24 -16 -24 -75 2 -75 33 -74 31 -59 102 8
34 17 88 20 120 l7 58 60 -33 c33 -18 63 -40 68 -48z m4400 10 c0 -19 7 -64
15 -100 14 -65 14 -65 -10 -87 -33 -29 -102 -50 -116 -36 -14 14 -34 173 -26
205 5 17 25 35 64 56 65 34 71 31 73 -38z m-4719 -190 c129 -98 199 -159 199
-174 0 -8 -11 -38 -24 -67 -13 -30 -40 -92 -59 -139 -20 -47 -53 -127 -75
-179 l-39 -94 -32 46 c-70 103 -215 198 -378 250 -92 29 -107 30 -263 31 -177
1 -230 -9 -332 -60 -79 -40 -79 -39 -43 105 18 70 35 133 39 139 10 17 124 50
250 72 71 13 178 23 296 26 130 5 192 10 207 20 12 7 36 40 53 73 l32 60 37
-19 c21 -10 80 -51 132 -90z m5103 45 c21 -35 43 -69 50 -73 6 -5 92 -12 191
-15 246 -8 504 -52 554 -95 13 -12 29 -57 49 -142 17 -69 28 -127 26 -130 -3
-2 -14 1 -25 8 -35 22 -123 51 -209 68 -110 22 -301 14 -408 -16 -155 -44
-313 -144 -397 -252 -16 -21 -32 -38 -35 -38 -3 0 -16 28 -30 63 -13 34 -49
116 -78 182 -77 171 -95 225 -80 242 13 16 140 119 178 145 14 9 57 39 95 67
39 27 73 50 76 50 3 1 23 -28 43 -64z m-4130 39 c30 -11 40 -43 20 -65 -30
-33 -74 -18 -74 26 0 21 17 45 31 45 4 0 15 -3 23 -6z m2996 -14 c24 -24 25
-34 4 -54 -43 -44 -90 12 -51 62 13 17 24 15 47 -8z m-2496 -23 c16 -26 -27
-62 -55 -47 -19 10 -26 50 -12 64 13 12 56 2 67 -17z m1978 -12 c13 -29 -3
-55 -33 -55 -27 0 -46 44 -29 65 19 23 49 18 62 -10z m-817 -47 c65 -34 68
-44 45 -144 -12 -49 -23 -96 -26 -105 -4 -13 -12 -15 -47 -8 -54 11 -260 11
-314 0 l-43 -8 -9 36 c-34 128 -41 174 -29 188 17 21 63 43 111 53 69 15 277
6 312 -12z m1624 -191 c-23 -33 -179 -228 -189 -237 -4 -3 -29 -35 -57 -71
l-50 -66 -6 -153 c-4 -84 -9 -155 -11 -157 -2 -3 -23 8 -45 23 l-41 27 0 164
0 164 83 103 c45 56 111 140 147 186 36 46 78 99 94 117 l29 34 34 -51 34 -51
-22 -32z m-3477 16 c46 -58 110 -138 144 -177 119 -139 115 -128 112 -316 l-3
-164 -34 -23 c-19 -13 -38 -23 -42 -23 -5 0 -9 68 -9 151 l0 150 -73 92 c-211
265 -250 321 -242 345 7 25 44 72 55 72 5 0 46 -48 92 -107z m1428 -114 c0 -9
-9 -24 -21 -35 -11 -10 -64 -76 -116 -146 -53 -71 -102 -128 -108 -128 -20 0
-39 28 -28 43 5 6 49 65 98 130 l89 119 -22 60 -22 61 42 50 42 50 23 -94 c12
-52 23 -101 23 -110z m558 169 c56 -66 56 -65 33 -118 -12 -27 -21 -53 -21
-59 0 -7 129 -188 192 -267 5 -7 0 -17 -15 -27 -23 -15 -25 -13 -146 145
l-122 159 15 62 c8 34 18 79 22 100 3 20 8 37 11 37 2 0 16 -14 31 -32z
m-2367 -229 c106 -337 305 -654 561 -894 62 -58 77 -76 58 -72 -14 3 -65 13
-115 22 -216 40 -329 86 -469 193 -224 171 -285 224 -343 299 l-25 33 20 57
c27 76 87 225 117 288 13 28 42 96 64 153 22 56 47 111 53 122 12 20 13 19 21
-12 5 -18 31 -103 58 -189z m4190 174 c6 -21 22 -58 35 -83 22 -44 102 -235
130 -313 8 -22 24 -57 35 -79 12 -23 27 -59 35 -80 l14 -40 -58 -64 c-31 -35
-101 -99 -156 -141 -55 -43 -108 -86 -119 -97 -35 -33 -144 -104 -219 -142
-53 -27 -111 -45 -213 -65 -222 -46 -219 -50 -79 94 220 225 345 417 457 702
31 77 68 186 84 242 15 57 31 103 35 103 3 0 12 -17 19 -37z m-3955 -100 c26
-38 77 -104 114 -148 36 -44 83 -102 103 -129 l37 -49 0 -153 c0 -141 -2 -154
-19 -164 -33 -17 -55 -11 -79 23 -112 160 -213 353 -267 509 l-27 77 42 50
c24 28 44 51 46 51 1 0 24 -30 50 -67z m3731 15 l41 -43 -24 -74 c-46 -142
-208 -442 -289 -532 -25 -29 -26 -29 -56 -13 l-31 16 4 156 3 157 65 80 c36
45 103 129 150 188 46 59 87 107 90 107 3 0 24 -19 47 -42z m-2307 29 c0 -1 4
-17 9 -34 9 -29 5 -38 -42 -100 -28 -37 -72 -93 -98 -124 l-46 -57 -53 33
c-50 31 -51 33 -27 39 31 7 103 77 183 176 46 58 74 83 74 67z m945 -166 c33
-35 73 -69 88 -76 l29 -12 -44 -26 c-25 -14 -49 -27 -55 -29 -18 -6 -193 224
-193 255 0 10 5 28 12 40 11 20 13 19 57 -33 25 -30 73 -84 106 -119z m-372
87 c30 -12 282 -337 306 -396 9 -22 11 -49 7 -85 -4 -28 -14 -126 -21 -217
-32 -381 -56 -648 -63 -688 -7 -41 -11 -46 -91 -95 l-84 -52 -181 -3 c-266 -5
-291 -1 -384 61 l-77 52 -12 120 c-7 66 -19 203 -28 305 -9 102 -22 249 -30
327 -23 224 -21 265 17 321 57 84 235 316 258 337 17 16 41 21 113 25 115 7
233 2 270 -12z m-1043 -115 c252 -151 303 -183 329 -202 23 -17 23 -19 6 -50
-21 -41 -20 -58 36 -640 11 -117 18 -216 15 -218 -2 -3 -13 0 -23 5 -19 11
-35 126 -68 487 -26 286 -33 325 -69 360 -17 17 -105 84 -196 150 -91 65 -180
129 -197 142 -25 18 -33 32 -33 54 0 35 -21 44 200 -88z m1917 63 c-3 -7 -68
-57 -144 -111 -216 -154 -297 -215 -306 -231 -5 -9 -15 -79 -23 -157 -8 -78
-21 -207 -29 -287 -40 -394 -39 -390 -66 -390 -16 0 -19 5 -14 38 7 53 33 334
45 487 24 300 24 299 6 332 -9 18 -16 34 -16 36 0 7 244 158 375 231 66 38
131 76 145 86 24 18 25 18 28 -1 2 -11 1 -26 -1 -33z m-1967 -167 c115 -79
270 -198 270 -206 0 -2 7 -62 16 -131 8 -70 21 -191 28 -269 10 -127 10 -143
-4 -143 -37 1 -40 14 -45 160 -6 180 -21 306 -41 340 -9 14 -51 50 -95 80 -43
30 -123 86 -179 124 l-100 70 0 45 0 44 23 -20 c12 -11 69 -54 127 -94z m1948
9 c-13 -10 -88 -63 -168 -117 -80 -55 -156 -111 -168 -124 -15 -15 -26 -45
-32 -83 -14 -91 -31 -366 -24 -391 5 -18 0 -25 -20 -34 -14 -7 -29 -9 -32 -6
-14 14 38 513 57 549 5 9 70 60 145 115 75 54 164 118 197 143 l62 46 3 -40
c3 -32 -1 -43 -20 -58z m-4645 36 c84 -44 157 -149 157 -227 0 -44 -10 -66
-90 -197 -81 -131 -117 -226 -131 -344 -15 -115 -2 -239 35 -348 12 -38 20
-65 16 -61 -25 30 -81 116 -100 153 -19 37 -24 66 -28 165 -7 173 19 260 125
432 42 68 47 93 20 93 -17 0 -89 -111 -137 -212 -25 -53 -46 -116 -57 -176
-24 -128 -38 -98 -38 83 0 136 2 143 38 247 31 89 39 130 48 240 13 160 23
183 77 173 20 -4 49 -13 65 -21z m7332 3 c9 -14 17 -56 20 -103 8 -144 17
-198 41 -259 59 -150 74 -269 49 -381 l-18 -79 -18 87 c-21 106 -34 148 -66
212 -30 60 -101 166 -122 184 -45 37 -37 -16 14 -87 40 -55 88 -164 110 -248
21 -77 21 -252 1 -317 -13 -42 -104 -191 -112 -183 -2 1 6 28 16 60 46 138 52
306 15 442 -18 70 -87 209 -152 307 -58 88 -66 140 -33 216 25 59 91 124 153
153 56 25 83 24 102 -4z m-539 -11 c28 -3 80 -15 115 -26 35 -12 69 -23 76
-25 9 -3 8 -15 -3 -49 l-15 -45 -42 15 c-238 85 -477 70 -686 -43 -35 -18 -65
-32 -68 -30 -8 8 81 78 144 113 34 19 94 46 135 59 68 23 228 46 273 39 11 -2
43 -6 71 -8z m-6031 -29 c90 -30 187 -84 249 -139 l41 -36 -86 42 c-124 60
-224 81 -389 81 -119 -1 -145 -4 -220 -29 -47 -15 -91 -30 -97 -32 -8 -4 -13
2 -13 15 0 11 -4 23 -10 26 -19 12 -10 40 18 52 27 12 101 37 137 47 11 3 81
3 155 2 113 -3 148 -8 215 -29z m1822 -120 c-2 -7 -11 -13 -20 -15 -12 -3 -17
4 -17 23 0 23 2 25 21 15 11 -6 18 -17 16 -23z m2083 8 c0 -27 -7 -30 -30 -15
-13 9 -12 12 4 25 26 19 26 19 26 -10z m-3890 -18 l45 -15 -77 -1 c-150 -2
-328 -42 -450 -101 l-40 -19 6 52 c4 28 9 53 11 55 4 4 55 18 140 38 76 17
300 11 365 -9z m6091 -6 c77 -24 84 -32 91 -87 l6 -41 -97 40 c-108 45 -264
76 -380 77 -47 0 -71 4 -65 9 35 36 333 37 445 2z m-2166 -11 c3 -5 1 -10 -4
-10 -6 0 -11 5 -11 10 0 6 2 10 4 10 3 0 8 -4 11 -10z m-2085 -9 c0 -5 3 -16
6 -24 3 -10 -3 -20 -15 -27 -18 -9 -23 -8 -30 12 -7 17 -5 26 7 36 19 14 32
16 32 3z m2023 -31 c-7 -28 -17 -32 -38 -16 -14 10 -16 16 -6 34 9 18 16 20
31 12 12 -6 16 -17 13 -30z m-1963 14 c0 -2 -7 -4 -15 -4 -8 0 -15 4 -15 10 0
5 7 7 15 4 8 -4 15 -8 15 -10z m1890 6 c0 -5 -5 -10 -11 -10 -5 0 -7 5 -4 10
3 6 8 10 11 10 2 0 4 -4 4 -10z m-2015 -41 c7 -20 -7 -38 -27 -39 -10 0 -20
38 -13 50 11 17 33 11 40 -11z m2149 15 c12 -5 13 -10 4 -30 -13 -27 -19 -29
-36 -12 -7 7 -8 17 -1 30 11 20 11 20 33 12z m-1977 -20 c6 -15 -19 -44 -38
-44 -9 0 -19 41 -13 52 9 14 44 9 51 -8z m1817 8 c6 -10 -4 -52 -13 -52 -3 0
-15 7 -25 15 -16 12 -17 17 -6 30 14 16 36 20 44 7z m-2053 -33 c9 -17 8 -23
-2 -30 -24 -15 -39 -10 -39 15 0 20 5 27 27 35 1 1 7 -9 14 -20z m2278 7 c14
-16 4 -46 -14 -46 -19 0 -27 17 -20 40 7 23 18 25 34 6z m-2119 -5 c0 -5 3
-16 6 -24 3 -10 -3 -20 -15 -27 -18 -9 -23 -8 -30 12 -7 17 -5 26 7 36 19 14
32 16 32 3z m1970 -19 c0 -5 -6 -16 -13 -25 -10 -15 -15 -16 -29 -5 -12 10
-14 19 -7 36 7 19 12 21 29 12 11 -6 20 -14 20 -18z m-1806 -11 c16 -17 16
-19 0 -25 -18 -7 -34 8 -34 32 0 18 14 15 34 -7z m1625 -3 c-16 -30 -14 -29
-33 -22 -16 6 -16 8 0 25 25 28 48 26 33 -3z m-3409 -18 c84 -28 114 -53 45
-38 -26 6 -117 8 -204 6 -141 -4 -165 -7 -256 -36 -55 -17 -123 -45 -152 -62
-71 -41 -165 -130 -189 -179 -10 -22 -22 -41 -26 -41 -4 0 -16 -26 -28 -57
-64 -169 -18 -421 114 -621 29 -45 50 -82 45 -82 -17 0 -83 66 -135 136 -186
253 -179 594 19 795 113 115 236 170 452 203 72 11 251 -3 315 -24z m5592 6
c163 -39 294 -118 372 -225 175 -238 157 -540 -45 -802 -28 -36 -106 -96 -114
-87 -2 2 15 31 40 63 75 101 124 216 145 340 46 276 -49 464 -295 586 -155 77
-233 92 -434 87 -91 -3 -175 -8 -186 -12 -11 -3 7 7 40 24 33 16 85 34 115 39
77 14 282 6 362 -13z m-4039 -8 c6 -20 -6 -37 -25 -38 -10 0 -20 38 -13 50 11
18 32 11 38 -12z m175 -2 c9 -21 8 -27 -14 -41 -23 -15 -25 -15 -35 12 -8 22
-7 30 7 40 24 18 29 17 42 -11z m1746 11 c20 -15 14 -57 -8 -57 -26 0 -44 24
-35 48 10 25 18 27 43 9z m172 5 c12 -8 1 -52 -13 -52 -20 1 -32 18 -26 38 5
22 19 27 39 14z m-2252 -18 c4 -11 1 -14 -11 -12 -9 2 -18 9 -21 16 -6 18 25
15 32 -4z m2398 1 c0 -5 -5 -11 -11 -13 -6 -2 -11 4 -11 13 0 9 5 15 11 13 6
-2 11 -8 11 -13z m-2304 -29 c11 -24 1 -36 -28 -36 -14 0 -20 44 -7 52 19 12
23 10 35 -16z m2216 18 c21 -8 21 -43 0 -51 -22 -8 -37 11 -29 36 7 23 7 23
29 15z m-2044 -50 c0 -11 -21 -24 -40 -24 -16 0 -18 50 -1 60 17 10 41 -11 41
-36z m170 11 c0 -19 -2 -35 -4 -35 -2 0 -11 -3 -19 -6 -23 -9 -33 47 -11 63
28 20 34 16 34 -22z m1544 13 c6 -11 6 -24 0 -38 -8 -18 -11 -19 -28 -7 -14
10 -17 21 -12 41 7 29 23 30 40 4z m182 -15 c-3 -8 -6 -19 -6 -24 0 -11 -21
-12 -38 -1 -10 7 -10 15 -2 36 8 23 12 25 31 16 12 -7 18 -17 15 -27z m-1972
-25 c9 -35 8 -38 -13 -38 -20 0 -37 32 -26 50 11 18 32 11 39 -12z m164 -48
c-24 -19 -29 -16 -42 26 -5 15 -1 23 16 31 20 9 25 7 36 -14 12 -21 11 -26
-10 -43z m1695 56 c20 -16 14 -66 -8 -66 -22 0 -38 28 -31 55 7 28 13 30 39
11z m170 8 c17 -6 12 -37 -8 -54 -19 -15 -35 9 -24 38 9 24 10 25 32 16z
m-2239 -57 c45 -30 169 -105 276 -167 107 -62 207 -120 222 -129 28 -16 34
-35 19 -59 -10 -16 -58 6 -224 104 -59 35 -110 64 -113 64 -23 0 -314 192
-314 207 0 8 33 32 44 33 5 0 46 -24 90 -53z m2531 39 c16 -12 17 -16 6 -30
-22 -26 -158 -116 -276 -182 -60 -33 -157 -88 -215 -121 -135 -78 -146 -81
-154 -47 -4 14 -5 28 -4 30 2 2 73 43 158 92 85 49 174 100 197 115 24 15 45
27 47 27 8 0 170 102 186 116 18 18 31 18 55 0z m1415 -12 c0 -1 -98 -77 -217
-168 -120 -91 -232 -176 -248 -189 -30 -25 -30 -25 -65 -6 -19 10 -60 26 -90
35 -30 9 -58 20 -63 24 -4 3 24 30 62 59 38 29 82 63 98 77 78 68 171 123 244
143 100 28 279 44 279 25z m-5230 -20 c114 -29 159 -54 300 -168 42 -34 91
-73 110 -87 l34 -26 -57 -22 c-32 -11 -75 -29 -95 -40 l-37 -18 -76 56 c-86
63 -295 219 -383 286 l-59 45 79 0 c52 0 114 -9 184 -26z m1425 16 c3 -5 2
-10 -4 -10 -5 0 -13 5 -16 10 -3 6 -2 10 4 10 5 0 13 -4 16 -10z m2155 6 c0
-3 -4 -8 -10 -11 -5 -3 -10 -1 -10 4 0 6 5 11 10 11 6 0 10 -2 10 -4z m-3818
-88 c62 -46 162 -121 223 -167 60 -45 131 -99 158 -118 26 -19 47 -39 47 -43
0 -5 -37 -46 -83 -92 -65 -65 -92 -101 -125 -168 -23 -47 -46 -109 -52 -139
-6 -30 -12 -57 -15 -60 -3 -2 -29 5 -58 16 -362 143 -604 242 -659 270 -64 31
-68 35 -68 68 0 19 1 35 3 35 2 0 23 -9 47 -21 62 -30 359 -152 542 -224 89
-34 128 -40 128 -17 0 23 -50 48 -240 122 -25 9 -108 44 -185 77 -77 33 -171
73 -209 88 -37 16 -70 34 -73 41 -9 25 36 145 73 194 61 80 176 153 309 196
107 35 111 34 237 -58z m3678 49 c0 -13 -20 -47 -28 -47 -4 0 -13 4 -21 9 -12
8 -12 14 -2 40 11 26 15 28 32 18 10 -6 19 -16 19 -20z m2016 7 c168 -54 252
-113 335 -235 26 -39 40 -72 45 -107 l6 -50 -43 -23 c-43 -22 -181 -79 -464
-194 -77 -31 -155 -63 -173 -72 -41 -21 -39 -49 3 -46 31 3 564 212 643 252
24 12 45 21 47 19 1 -2 0 -19 -2 -39 -5 -34 -9 -39 -71 -67 -174 -79 -674
-272 -705 -272 -10 0 -18 20 -27 62 -24 122 -116 258 -249 365 l-23 19 72 54
c40 30 100 75 134 100 35 25 82 61 107 82 113 94 236 177 260 178 15 0 62 -12
105 -26z m-3862 -11 c5 -17 3 -29 -6 -34 -21 -14 -28 -11 -39 18 -7 20 -6 28
3 35 23 14 36 9 42 -19z m156 -13 c0 -22 -4 -40 -9 -40 -12 0 -25 56 -16 70
13 22 25 8 25 -30z m1513 24 c7 -8 -13 -54 -25 -54 -4 0 -8 14 -8 30 0 28 17
40 33 24z m-2123 -38 c7 -9 10 -25 7 -36 -3 -11 -1 -66 4 -122 5 -56 7 -104 4
-106 -5 -5 -194 178 -206 200 -8 15 2 23 68 57 79 40 94 40 123 7z m2831 -8
l80 -42 -110 -110 c-61 -60 -113 -107 -116 -105 -2 3 1 63 6 134 9 110 14 133
31 148 11 9 22 17 24 17 2 0 40 -19 85 -42z m-2456 22 c3 -5 2 -10 -4 -10 -5
0 -13 5 -16 10 -3 6 -2 10 4 10 5 0 13 -4 16 -10z m1975 1 c0 -5 -7 -11 -15
-15 -15 -5 -20 5 -8 17 9 10 23 9 23 -2z m-1796 -68 c-25 -18 -33 -16 -44 10
-6 17 -4 26 13 40 20 18 21 18 35 -9 13 -25 13 -29 -4 -41z m1640 23 c-10 -34
-19 -38 -42 -19 -16 14 -18 23 -12 40 8 20 12 22 35 11 19 -9 24 -16 19 -32z
m-1717 -23 c-3 -3 -11 -2 -17 2 -9 6 -9 10 1 16 14 8 27 -7 16 -18z m1764 4
c-13 -13 -26 -3 -16 12 3 6 11 8 17 5 6 -4 6 -10 -1 -17z m-2101 -42 c51 -40
490 -285 511 -285 8 0 25 7 37 16 19 13 28 14 52 4 31 -13 33 -18 48 -159 7
-66 14 -75 64 -85 21 -5 29 -14 33 -40 15 -78 8 -79 -87 -17 l-87 56 -2 45
c-2 86 -6 90 -134 163 -230 130 -275 151 -315 141 -34 -9 -35 -10 -38 -66 -2
-48 -6 -58 -21 -58 -22 0 -31 41 -31 136 0 64 -11 81 -45 68 -15 -6 -21 -45
-8 -57 3 -4 8 -35 11 -68 l4 -61 -35 26 c-33 26 -34 28 -41 118 -3 50 -6 111
-6 135 l0 45 38 -23 c20 -12 44 -28 52 -34z m2507 -77 c-7 -133 -8 -133 -39
-160 -18 -15 -33 -26 -36 -24 -2 2 2 39 8 82 8 64 8 80 -4 92 -10 10 -19 11
-33 4 -18 -10 -19 -19 -15 -98 4 -66 1 -88 -9 -95 -24 -15 -29 -10 -29 32 0
55 -14 77 -55 85 -37 7 -91 -19 -328 -154 -105 -60 -117 -77 -117 -162 0 -31
-6 -39 -58 -73 -31 -21 -69 -47 -84 -59 -15 -12 -30 -19 -34 -16 -3 4 -3 31 1
62 7 52 9 56 34 56 49 0 59 17 71 125 7 55 17 103 23 108 27 17 58 19 76 3 10
-9 24 -16 31 -16 27 0 393 205 550 309 25 16 47 30 50 30 3 1 2 -59 -3 -131z
m-2030 90 c-3 -8 -6 -5 -6 6 -1 11 2 17 5 13 3 -3 4 -12 1 -19z m-30 -13 c3
-9 3 -19 -1 -22 -8 -9 -37 18 -30 28 8 14 24 11 31 -6z m1562 6 c11 -7 6 -13
-19 -26 -18 -9 -30 -13 -28 -8 3 4 8 16 11 26 7 19 15 21 36 8z m-1669 -310
c171 -94 175 -97 181 -134 3 -20 4 -37 1 -37 -3 0 -26 13 -52 30 -61 39 -220
113 -292 136 l-58 18 0 49 c0 45 1 48 23 42 12 -4 101 -51 197 -104z m1960 55
l0 -43 -65 -22 c-74 -24 -228 -96 -293 -136 l-43 -27 3 38 3 38 175 97 c96 53
185 97 198 98 20 1 22 -4 22 -43z m945 33 c153 -28 343 -178 417 -329 83 -169
88 -310 17 -457 -23 -47 -27 -51 -68 -63 l-28 -8 31 61 c29 57 31 66 31 171 0
76 -5 128 -17 166 -20 66 -77 162 -135 229 -53 61 -204 157 -303 192 -41 15
-68 29 -60 32 56 20 46 19 115 6z m-3947 -8 c9 -6 -2 -12 -35 -20 -86 -22
-222 -101 -300 -174 -130 -124 -185 -242 -187 -407 -1 -105 11 -159 49 -214
l25 -36 -28 6 c-98 21 -154 232 -107 408 62 236 301 444 510 445 33 1 66 -3
73 -8z m3747 -90 c146 -38 331 -147 397 -233 37 -49 68 -114 68 -143 0 -15
-14 -46 -31 -70 l-32 -44 -21 32 c-38 56 -117 82 -180 57 -23 -8 -26 -7 -31
18 -23 109 -54 153 -125 172 -41 11 -81 7 -131 -14 -13 -6 -18 1 -23 29 -7 37
-53 98 -90 117 -55 30 -149 26 -187 -8 -13 -12 -19 -11 -38 10 l-23 25 38 9
c22 5 84 19 139 30 55 12 109 23 120 25 42 9 82 6 150 -12z m-3379 -16 c155
-31 158 -33 135 -63 l-17 -24 -39 23 c-58 35 -134 31 -183 -8 -35 -29 -73 -88
-85 -132 -5 -22 -6 -22 -32 -5 -43 28 -115 24 -159 -10 -49 -37 -68 -68 -74
-121 l-5 -44 -43 6 c-69 9 -111 -4 -154 -48 l-38 -39 -31 39 c-41 52 -40 84 7
157 76 116 199 206 364 264 106 38 183 39 354 5z m294 -47 c-1 -2 -9 -28 -20
-58 -13 -40 -24 -55 -37 -55 -32 0 -30 60 3 90 22 20 55 34 54 23z m2559 -22
c29 -31 27 -91 -4 -91 -14 0 -21 10 -27 38 -4 21 -13 47 -18 58 -16 29 21 25
49 -5z m-2329 -19 c25 -10 55 -23 68 -28 l23 -9 -32 -45 c-23 -31 -33 -59 -37
-96 l-5 -51 -41 7 c-22 4 -66 10 -96 14 l-55 6 -3 38 c-4 51 22 138 53 171 27
30 43 29 125 -7z m2169 7 c29 -37 53 -116 49 -166 l-3 -43 -65 -7 c-36 -3 -78
-8 -95 -10 -26 -2 -30 1 -33 22 -7 55 -24 101 -48 129 l-25 30 22 12 c27 14
149 57 166 58 6 1 21 -11 32 -25z m-2641 -64 c17 -11 32 -24 32 -29 0 -5 -15
-12 -32 -16 -18 -4 -59 -20 -90 -36 -55 -27 -57 -27 -63 -8 -9 29 12 85 38 97
35 17 79 14 115 -8z m3113 -9 c21 -22 29 -39 29 -65 0 -20 -3 -36 -6 -36 -3 0
-38 16 -78 35 -40 19 -81 35 -90 35 -24 0 -20 16 10 39 41 32 98 28 135 -8z
m1714 -23 c-37 -124 -117 -266 -192 -344 l-49 -51 -195 -46 c-219 -52 -333
-77 -348 -77 -6 0 -4 17 5 43 9 23 18 77 21 119 3 43 11 82 17 87 6 5 49 22
96 39 47 16 141 52 210 80 69 27 178 71 242 96 64 26 136 57 160 71 24 14 44
25 45 25 0 0 -5 -19 -12 -42z m-6523 -34 c102 -42 406 -161 549 -216 l56 -22
6 -75 c3 -42 13 -98 22 -124 10 -26 15 -50 13 -53 -3 -2 -47 7 -99 20 -52 13
-166 41 -254 61 -88 20 -176 46 -195 57 -64 37 -196 234 -230 346 -24 78 -24
75 0 62 11 -6 70 -31 132 -56z m2345 45 c9 -9 6 -20 -13 -44 -13 -18 -30 -52
-37 -76 -8 -26 -19 -44 -27 -44 -33 0 -19 98 21 149 22 28 39 32 56 15z m1750
-30 c19 -29 27 -54 27 -86 1 -64 -18 -65 -39 -3 -9 28 -28 64 -41 80 -23 27
-23 29 -7 39 27 16 31 14 60 -30z m-1549 -96 c61 -41 112 -76 112 -79 0 -3 -8
-19 -17 -35 -38 -64 -115 -63 -226 2 -40 23 -73 43 -75 44 -2 2 2 22 8 46 14
51 58 112 74 102 6 -4 62 -40 124 -80z m1467 27 c7 -14 16 -41 20 -60 6 -35 6
-35 -70 -79 -85 -48 -139 -60 -185 -41 -32 13 -68 67 -53 80 4 4 60 42 123 83
109 73 115 76 133 59 10 -9 25 -28 32 -42z m-2186 -70 c28 -49 51 -92 51 -95
0 -3 -10 -5 -22 -5 -34 0 -105 -38 -133 -71 l-25 -30 -33 53 c-65 102 -88 147
-82 158 11 18 145 77 181 79 7 1 35 -39 63 -89z m2904 51 c23 -10 50 -27 59
-38 16 -18 14 -23 -43 -108 -34 -50 -63 -92 -66 -95 -3 -3 -15 7 -26 21 -27
32 -97 69 -132 69 -14 0 -25 6 -25 13 0 6 23 47 51 91 l50 78 45 -7 c25 -3 65
-15 87 -24z m-3303 -16 c28 -25 25 -32 -14 -39 -19 -4 -59 -19 -90 -35 l-56
-28 0 39 c0 28 7 46 26 65 22 22 32 25 70 20 25 -2 54 -13 64 -22z m3653 5
c27 -21 41 -61 32 -89 -5 -16 -12 -14 -71 16 -37 18 -75 33 -85 33 -31 0 -30
17 3 38 43 26 89 27 121 2z m-3594 -126 c11 -14 23 -35 27 -47 4 -12 16 -35
27 -51 16 -23 17 -30 6 -37 -8 -5 -23 -9 -34 -9 -28 0 -85 -36 -116 -72 l-26
-31 -30 74 c-45 108 -46 113 -25 132 16 15 126 65 144 67 4 0 16 -12 27 -26z
m586 14 c7 -8 12 -127 5 -123 -8 5 -80 123 -80 132 0 5 70 -3 75 -9z m2298 -5
c-19 -49 -56 -99 -99 -135 -109 -90 -301 -229 -364 -263 -8 -4 21 29 65 74 44
44 85 81 91 81 14 0 27 45 19 69 -5 16 3 19 57 25 70 7 90 21 140 100 37 59
45 66 75 66 17 0 21 -4 16 -17z m-2168 -13 c28 -6 105 -38 172 -72 117 -59
123 -60 186 -56 49 3 75 10 106 31 l41 27 0 -190 0 -191 -32 3 c-29 3 -33 7
-36 35 -3 27 -21 46 -122 130 -67 54 -120 106 -120 115 -1 74 -85 114 -135 63
-33 -32 -33 -78 1 -112 22 -22 31 -24 67 -19 42 6 45 5 149 -78 107 -86 127
-111 108 -130 -13 -13 -34 -1 -220 127 -243 168 -228 154 -235 217 -3 30 -7
70 -10 88 -3 27 -1 32 13 28 9 -3 40 -10 67 -16z m2024 -22 c-18 -24 -34 -45
-36 -47 -2 -2 -36 -9 -75 -15 l-73 -11 -5 -46 c-5 -43 -11 -52 -93 -127 l-88
-82 -64 0 c-73 0 -85 -11 -85 -75 0 -34 -2 -36 -27 -33 -26 3 -28 6 -29 53 0
40 5 56 24 77 19 21 29 25 43 18 33 -18 70 -11 101 20 35 36 33 71 -8 108 -49
44 -118 20 -130 -46 -4 -23 -19 -48 -40 -68 -29 -27 -34 -39 -34 -75 0 -68 -9
-89 -36 -89 l-24 0 0 203 0 202 41 29 c22 15 41 27 43 25 1 -2 14 -23 28 -45
39 -61 101 -88 184 -81 50 4 83 15 156 53 77 39 216 91 251 93 5 1 -6 -18 -24
-41z m739 32 c19 -5 53 -21 77 -34 l43 -26 -40 -94 -40 -93 -45 43 c-30 29
-56 45 -81 49 -64 11 -63 10 -36 72 41 94 55 103 122 83z m-2168 -42 c27 -19
30 -28 30 -76 0 -47 -4 -58 -30 -82 -57 -53 -24 -140 52 -140 81 1 111 89 49
144 -14 13 -21 31 -21 58 0 21 2 38 4 38 1 0 16 -4 32 -9 16 -5 41 -12 57 -15
l27 -6 0 -175 c0 -198 8 -183 -85 -167 -39 7 -40 8 -37 45 3 28 0 37 -12 37
-12 0 -16 -10 -16 -41 l0 -40 -46 3 -46 3 -1 223 c-1 122 2 222 6 222 4 0 21
-10 37 -22z m-1883 -67 c9 -13 20 -44 24 -70 4 -25 12 -63 17 -83 5 -21 7 -38
3 -38 -10 0 -77 72 -89 95 -14 29 -25 120 -17 146 l7 22 20 -24 c10 -13 26
-35 35 -48z m231 52 c37 -32 32 -55 -13 -67 -22 -6 -54 -19 -72 -29 -18 -9
-35 -17 -39 -17 -13 0 4 91 21 110 23 25 76 26 103 3z m4191 -9 c20 -25 29
-83 15 -97 -3 -3 -20 3 -37 13 -17 11 -51 22 -74 26 -24 3 -43 8 -43 11 0 12
31 62 42 66 36 15 77 6 97 -19z m180 -103 c-9 -43 -20 -63 -47 -88 -39 -36
-58 -42 -48 -17 3 8 11 45 16 81 8 47 20 79 43 110 l32 45 8 -38 c4 -23 3 -61
-4 -93z m-943 56 c31 -16 44 -35 44 -63 0 -12 -3 -13 -22 -1 -13 8 -51 24 -86
37 -59 21 -62 24 -47 40 18 20 57 15 111 -13z m-2657 10 c12 -15 5 -27 -17
-27 -8 0 -41 -12 -73 -26 -64 -29 -75 -28 -64 6 13 42 129 77 154 47z m1578
-363 c-2 -2 -29 -6 -60 -10 l-57 -7 0 182 0 181 38 1 c20 0 46 4 57 8 19 8 20
3 23 -172 1 -99 1 -181 -1 -183z m-167 166 l0 -181 -77 3 -78 3 0 170 c0 102
4 173 10 177 6 4 40 8 78 8 l67 0 0 -180z m-200 -5 l0 -175 -34 0 c-44 0 -46
9 -45 199 l0 151 40 0 39 0 0 -175z m-782 132 c3 -26 1 -28 -25 -25 -22 2 -29
9 -31 31 -3 26 -1 28 25 25 22 -2 29 -9 31 -31z m-341 -100 c48 -126 59 -175
47 -195 -11 -18 -83 -56 -125 -67 -24 -6 -28 0 -82 129 -31 74 -57 139 -57
145 0 19 146 83 175 77 6 -1 25 -41 42 -89z m2528 48 c33 -15 61 -29 63 -30 1
-1 -22 -56 -51 -121 -30 -66 -58 -129 -61 -141 -9 -29 -12 -29 -91 3 -46 19
-67 32 -71 48 -3 12 10 69 29 126 56 168 51 159 89 151 18 -5 60 -21 93 -36z
m746 12 c30 -21 34 -28 32 -66 -1 -23 -12 -73 -24 -111 l-21 -68 -40 29 c-22
15 -56 31 -74 35 -19 3 -34 7 -34 8 0 6 41 147 49 169 9 22 17 27 44 27 19 0
49 -10 68 -23z m-4047 -74 c14 -49 26 -94 26 -100 0 -8 -14 -13 -35 -13 -24 0
-45 -9 -70 -31 -20 -18 -37 -30 -38 -28 -8 13 -31 84 -47 143 l-19 70 22 15
c29 21 54 29 98 30 l36 1 27 -87z m354 64 c9 -10 -6 -21 -68 -50 -43 -20 -81
-37 -84 -37 -14 0 -4 31 17 51 45 43 114 61 135 36z m3323 -21 c24 -16 39 -34
39 -46 0 -11 -3 -20 -7 -20 -4 0 -42 16 -84 36 -57 27 -76 40 -72 51 9 22 76
11 124 -21z m-2036 8 c25 -25 15 -49 -20 -49 -33 0 -45 25 -25 50 16 19 25 19
45 -1z m918 4 c7 -20 -12 -48 -32 -48 -21 0 -33 22 -25 45 7 18 51 20 57 3z
m1085 -123 l52 -26 -37 -67 c-29 -54 -60 -104 -79 -130 -3 -4 -129 64 -151 80
-8 6 1 36 34 108 l46 98 41 -18 c22 -10 65 -31 94 -45z m-3192 -42 c26 -53 43
-98 38 -100 -5 -2 -40 -21 -78 -43 -38 -22 -71 -40 -75 -40 -3 0 -21 26 -39
58 -19 31 -45 76 -59 100 l-25 42 84 40 c45 21 88 39 94 39 7 1 33 -43 60 -96z
m2204 -8 c0 -10 -88 -55 -108 -55 -17 0 -22 6 -22 24 0 22 5 25 48 29 26 2 55
4 65 5 9 1 17 0 17 -3z m-2603 -71 c5 -15 -116 -79 -128 -67 -5 5 -2 18 7 32
29 40 111 65 121 35z m3893 -6 c60 -41 69 -84 13 -59 -46 20 -103 63 -97 72
10 16 50 9 84 -13z m-3802 -123 c62 -94 76 -131 62 -166 -13 -31 -39 -44 -69
-34 -20 6 -113 108 -145 159 -19 29 -19 30 0 43 57 41 90 61 99 62 6 1 30 -28
53 -64z m3742 26 l59 -38 -67 -84 c-37 -46 -79 -90 -93 -98 -24 -13 -29 -13
-53 2 -41 27 -35 71 24 172 28 47 55 85 61 85 5 0 37 -17 69 -39z m-3330 -40
c33 -67 60 -138 60 -162 0 -32 -40 -69 -74 -69 -26 0 -38 8 -68 48 -20 26 -50
71 -68 100 -26 43 -30 55 -20 67 7 8 18 15 24 15 6 0 31 14 56 30 25 16 48 29
52 29 4 1 21 -26 38 -58z m2980 -34 c0 -15 -98 -158 -122 -179 -27 -24 -73
-23 -98 2 -35 35 -24 89 42 217 l28 51 75 -40 c41 -23 75 -46 75 -51z"/>
<path d="M4988 6144 c-147 -35 -198 -97 -148 -179 26 -42 90 -69 197 -86 160
-24 335 23 377 102 19 36 19 36 0 70 -53 90 -257 135 -426 93z m280 -50 c29
-8 67 -27 84 -43 29 -26 30 -29 16 -50 l-15 -22 -17 27 c-31 47 -98 68 -211
69 -112 0 -181 -19 -214 -61 -10 -13 -23 -24 -29 -24 -19 0 -22 33 -5 52 63
70 242 93 391 52z m-13 -94 c70 -35 11 -69 -123 -69 -84 -1 -168 14 -178 31
-8 12 22 35 61 47 45 15 205 8 240 -9z"/>
<path d="M8340 5516 c0 -17 5 -26 16 -26 10 0 14 7 12 22 -5 32 -28 35 -28 4z"/>
<path d="M1874 5525 c-3 -8 -3 -19 1 -25 11 -18 25 -11 25 15 0 27 -17 34 -26
10z"/>
<path d="M4546 5258 c-13 -19 -14 -25 -2 -43 18 -26 45 -26 63 2 13 19 12 24
-6 42 -27 27 -36 26 -55 -1z"/>
<path d="M5642 5268 c-30 -30 -2 -86 37 -73 32 10 38 45 11 67 -26 21 -32 22
-48 6z"/>
<path d="M4992 2510 c-46 -11 -59 -25 -166 -181 -148 -215 -141 -196 -127
-374 7 -82 19 -213 27 -290 8 -77 21 -216 29 -309 15 -187 15 -188 109 -257
l39 -29 223 0 223 0 60 56 c69 63 63 43 86 294 9 96 25 265 36 375 22 230 24
317 8 348 -24 45 -179 274 -214 314 -23 27 -50 46 -73 53 -42 11 -211 12 -260
0z m265 -97 c28 -30 83 -108 83 -117 0 -3 -99 -6 -221 -6 l-220 0 18 30 c10
17 36 51 59 75 l41 45 107 0 c104 0 108 -1 133 -27z m154 -216 c9 -12 23 -34
32 -48 l17 -25 -268 -2 c-147 -1 -297 1 -334 4 l-68 6 31 44 30 44 272 0 c269
-1 272 -1 288 -23z m57 -187 l-3 -45 -342 -3 -343 -2 0 22 c0 13 -3 33 -6 45
-6 22 -4 22 107 25 63 2 221 3 352 3 l238 0 -3 -45z m-8 -137 c0 -10 -3 -35
-6 -55 l-7 -38 -322 0 c-359 0 -335 -5 -335 71 l0 39 335 0 c312 0 335 -1 335
-17z m-20 -188 l0 -35 -314 0 -314 0 -4 30 c-3 17 -2 32 0 35 3 3 146 5 319 5
l313 0 0 -35z m-12 -132 c-3 -31 -7 -38 -33 -45 -16 -4 -152 -5 -302 -1 -240
5 -273 8 -273 22 0 9 -3 26 -6 39 l-6 22 311 0 312 0 -3 -37z m-12 -128 c10
-29 -17 -32 -296 -36 l-285 -4 -3 25 -3 25 292 0 c186 0 293 -4 295 -10z m-14
-138 l-4 -34 -276 1 -277 1 -3 33 -3 32 283 0 284 0 -4 -33z m-67 -122 c-29
-24 -34 -25 -209 -25 -164 0 -181 2 -212 21 -19 11 -34 23 -34 25 0 2 109 4
243 4 l242 -1 -30 -24z"/>
<path d="M5130 2368 c0 -4 26 -8 58 -8 40 0 53 3 42 10 -18 12 -100 10 -100
-2z"/>
<path d="M1872 1612 c-19 -56 27 -103 60 -62 33 41 18 90 -28 90 -15 0 -25 -9
-32 -28z"/>
<path d="M8304 1625 c-33 -51 19 -111 60 -69 20 20 14 62 -11 82 -23 17 -30
15 -49 -13z"/>
</g>
</svg>
